
<svg xmlns="http://www.w3.org/2000/svg" class="w-full" viewBox="0 0 260 210">
<defs>
<g id="lsd_2_47_Layer0_0_FILL">
<path fill="#bf5700" stroke="none" d="
M 69.35 39.7
L 65.6 41.1
Q 62.35 40.4 62.4 43.1 62.35 49 62.05 51.45
L 62.05 51.65 62 52.2
Q 59.75 65.6 58 78.85 56.8 82.65 59.5 81 60.05 80.85 61.15 80.75 62.45 80.35 64.45 80.4 66.2 79.75 66.55 78.25 66.85 76.4 67.3 74.65 68.05 71.1 69.45 66.75 69.95 65.75 69.85 64.7 70.5 63.5 70.35 63.1 71.25 62.05 71.15 60.3 71.6 59.9 71.65 59.15
L 73.9 50.5
Q 75.65 46.5 76.15 42.05 76.15 40.8 76.3 40.35 76.4 40.1 76.4 39.9 77.55 36.4 74.85 37.8
L 69.35 39.7
M 18.05 -75.3
Q 17.4 -77.4 17.85 -78.6 17.8 -80 17.85 -81.2 16.2 -92.5 14 -83.9 12.55 -78.8 12.75 -77.55 11.85 -73.75 11.25 -70.45 11.3 -66.15 8.35 -60.6 6.7 -58.45 4.45 -56.9 0.85 -53.95 -3.5 -53.2 -6.45 -52.35 -9.55 -51.85 -13.35 -51.25 -16.95 -51.25
L -26.75 -51.1
Q -33.05 -50.8 -39.6 -51.4 -42.1 -51.3 -44.15 -52 -54.15 -52.3 -60.3 -51.95 -63.45 -51.8 -65.8 -51.35 -67.15 -50.65 -68.15 -50.9 -74.5 -50.95 -80.6 -51.2 -93.6 -49.15 -103.2 -56 -107.3 -57.65 -109.65 -62.45 -111.2 -66 -112.55 -69.6 -113.7 -77.35 -115.2 -84.85 -115.2 -88.5 -116.2 -89.35 -117.05 -90.9 -117.75 -90
L -117.75 -89.95
Q -119.25 -88.1 -119.45 -84.15 -119.45 -79.3 -119.55 -77.3 -120.25 -72.15 -118.7 -66.15 -117.65 -60.95 -116 -56.3 -112.25 -50.05 -105.35 -46.9 -93.85 -42.6 -81.65 -41.95 -75.25 -41.95 -74.45 -41.2 -77.25 -40.45 -79.6 -40.15 -83.35 -40.55 -86.9 -37.85 -87.65 -37.4 -89.25 -36.05 -90.55 -35.6 -90.5 -34.1 -89.25 -31.9 -87.9 -30.95 -87.8 -30.9 -86.35 -29.85
L -82.45 -28.05
Q -75.4 -25 -68.3 -24.1 -66.15 -19.15 -64.5 -14.2
L -61.5 -4.65
Q -61.1 0.2 -60.9 3.55 -61.85 11.15 -59.6 12.8 -56.6 15.7 -52.7 15.55
L -51 15.4
Q -50.9 15.4 -50.75 15.35 -45.6 16.15 -43.75 14.25 -42.9 13.45 -42.15 13.35 -41.05 12.85 -40.4 11.8 -39.35 7.65 -38.45 4.7 -37.45 -3 -35.5 -9.55
L -35.45 -9.6
Q -35.4 -1.75 -36.3 4.7 -37.35 7.65 -37.5 9.95 -37.5 10.1 -38.05 10.9 -38.1 10.95 -38.2 11.15 -39.35 14 -41 15.2 -42.45 16.7 -42.85 17 -43 23.65 -41.8 28.95 -41.4 32.55 -40.35 32.85 -39.7 32.9 -39.85 33.4 -38.95 37.25 -36.1 40.1 -34.95 41.85 -33.75 43.1 -31.6 45.7 -28.25 48.1
L -27.5 48.55
Q -25.55 50.7 -21.75 51.45
L -17.65 52.85 -14.2 54.25
Q -11.9 55.95 -11.15 58.25 -10.7 58.85 -10.65 61.15 -9.7 63.5 -9.8 67.6 -9.7 77.75 -11.3 88.3 -11.85 89.75 -10.3 89.75
L -7.15 89.95 -6.3 89.9
Q -4.25 90.95 -3.15 89.75 -2.85 88.8 -2.65 88.25 -2.9 87.3 -2.6 86.6 -2.45 86.55 -2.45 85.35
L -1.4 80.8
Q -0.75 78.55 -0.4 74.95
L -0.25 74.1
Q 0.5 65.65 2.45 56.95 3.1 52.7 4.3 50.9 5.75 49.4 7 48.25 9.8 45.65 12.55 44.6 15.4 43.55 19.05 43.55
L 22.5 43.7
Q 30.9 43.85 39.5 44.2 46.7 44.75 54.2 42.1 58.65 40.9 62.45 38.95 66.8 37.85 70.7 35.9 71.4 35.75 71.85 35.45
L 71.9 35.45
Q 72.8 35.05 73.3 34.95 75.1 34.1 77.4 33.25 77.85 33.1 77.85 33.45
L 79.25 35.85
Q 79.45 36.4 79.9 37.05
L 80.25 37.65
Q 81.25 37.85 81.7 40.1 84.45 43.35 85.5 49.4
L 85.65 52.35
Q 85.15 55.85 84.45 61.25
L 84.4 61.8
Q 83.7 68.15 83.45 73.4 83.8 75.6 82.95 76.8 85.1 77.4 86.15 77.55 87.6 77.75 89.45 77.45 91.3 78 91.95 76.85 92.6 71.55 92.9 68.1 93.3 62.7 94.4 57.9 94.65 56.3 94.5 55.75 94.8 53.45 95.25 51.95 95.95 46.85 96.15 43.3 97.95 39.55 98.85 37.35 99.5 36.9 99.35 36.3 99.4 36.05 99.5 35.9 100.65 34.6 100.55 34 100.9 33.85 101.05 33 101.95 31.7 102 30.85 102.85 27.75 104.35 24.9 105.7 21.55 106 18.4 106.85 16.6 107.3 14.65
L 107.55 13.5
Q 108.15 6.2 108.95 -0.4 108.85 -5.9 109.65 -10.85
L 110.3 -13.85
Q 111 -12.8 111.2 -11.6 111.5 -8.1 112.25 -5.55 114.4 2 114.1 9.1
L 114.1 9.15
Q 115.65 21.65 112.2 33.55 111.15 43.15 111.9 51.4 112.45 60.4 114.85 54.2 115.9 52.8 115.8 51 117 49.15 116.6 47.2 117.7 46.4 117.6 43.45 117.3 36.9 118.2 34.8 118.65 34.25 118.8 33.35 119.1 31.85 118.95 30.5
L 119.1 28.35
Q 119.45 26.55 119.15 25.5 120.35 14.8 119.05 5.1 118.9 3.4 118.6 2.2 118.3 -6.1 115.8 -13.85
L 114.95 -16.6 114.35 -19.25
Q 113.95 -21.4 113.95 -23.8 114.45 -24.95 113.9 -28.4 113.7 -30.1 112.8 -31.25 112.4 -31.55 111.8 -32.25 111.6 -32.45 111.3 -32.6 111 -32.5 111 -32.8 110.9 -33.2 110.45 -33.3 109.35 -33.6 107.75 -33.6 107.65 -33.65 107.55 -33.6
L 104.3 -33.6
Q 95.45 -33.45 86.05 -34.65
L 76.8 -34.4 67.15 -34
Q 62.5 -33.5 56.85 -32.4 51.15 -30.95 45.05 -30.5
L 44.85 -30.45 40.35 -30.5 36.35 -30.5 25.45 -30.55
Q 14.15 -30.3 1.9 -31.05 -9.5 -30.3 -21.8 -31 -14.3 -31.15 -10.65 -37.45 -11.65 -39.55 -13.4 -41 -14.45 -41.6 -15.6 -42 -19.65 -42.7 -23.1 -43.15 -27.35 -43.9 -24.75 -44 -19.45 -44.1 -14.15 -44.35 -11.55 -44.45 -9.1 -44.9 -1.1 -44.25 4.45 -46.95 8.65 -48.75 11.5 -51.4 14.05 -53.65 14.85 -56.2 15.3 -57.55 16.25 -59.2 16.65 -60.1 17.25 -62.3 17.75 -69.35 18.05 -75.3
M 14 46.95
Q 12.5 47.7 10.9 49.25
L 10.2 49.95 10.1 50.05
Q 9.35 50.5 8.5 51.25 5.95 53.75 5.35 53.8 5.2 54.5 5.05 55.45 5.05 58.4 5.25 61.4 6.8 72.2 6.95 81.8 6.5 84.35 6.7 85.3 6.4 86.2 6.3 87.85 6.2 89.25 6.5 89.75 9.8 89.7 12.25 90 14.65 90.75 14.65 89.3 15.15 85.7 15.2 82.85 14.8 77.3 15.55 73.4 15.3 65.95 16.05 60.55 15.8 57.5 15.95 54.2
L 16.05 53.4
Q 15.8 52.2 16 50.9 16.3 50.05 16.05 49.9 17.15 44.25 14 46.95 Z"/>
</g>
</defs>

<g transform="matrix( 1, 0, 0, 1, 134,105) ">
<g transform="matrix( 1, 0, 0, 1, 0,0) ">
<use xlink:href="#lsd_2_47_Layer0_0_FILL"/>
</g>
</g>
</svg>
