<svg id="Dell_Technologies" data-name="Dell Technologies" xmlns="http://www.w3.org/2000/svg" xmlns:xlink="http://www.w3.org/1999/xlink"  class="w-full" viewBox="0 0 249.694 32">
  <defs>
    <clipPath id="clip-path">
      <rect id="Rectangle_800" data-name="Rectangle 800" width="249.694" height="32"/>
    </clipPath>
  </defs>
  <g id="Group_2362" data-name="Group 2362" clip-path="url(#clip-path)">
    <path id="Path_804" data-name="Path 804" d="M492.632,25.5c0-3.008-1.672-4.345-5.015-5.014s-5.346-1-5.346-3.341c0-1.671,1.337-2.674,3.677-2.674,3.008,0,4.011,1.337,4.011,3.008l.334.334h1.337l.335-.334c0-3.341-2.675-4.68-6.017-4.68-3.677,0-5.681,2.006-5.681,4.346,0,2.674,2,4.011,5.346,4.679s5.014,1,5.014,3.677c0,1.671-1,3.008-4.345,3.008-3.008,0-4.344-1.672-4.344-3.677L481.6,24.5h-1.337l-.334.334c0,3.008,2.339,5.347,6.349,5.347,4.345,0,6.351-2,6.351-4.678m-14.37-3.341.332-.335v-1c0-4.68-2.674-8.023-7.352-8.023s-7.352,3.343-7.352,8.023v.668c0,4.678,2.34,8.689,7.687,8.689,4.679,0,6.349-3.008,6.685-5.014l-.336-.334h-1.337l-.334.334a4.454,4.454,0,0,1-4.679,3.343c-4.346,0-5.683-4.011-5.683-6.015l.335-.334Zm-2.006-1.672H466.229l-.335-.334c0-2.34,1.337-5.681,5.347-5.681s5.348,3.341,5.348,5.681Zm-14.706,9.024V13.467l-.334-.334h-1.337l-.334.334V29.511l.334.334h1.337Zm0-19.386v-2l-.334-.334h-1.337l-.334.334v2l.334.335h1.337Zm-12.7,18.383c-3.343,0-5.349-2.34-5.349-7.018s2.006-7.019,5.349-7.019S454.2,16.81,454.2,21.49s-2.006,7.018-5.346,7.018m5.346-1c0,4.344-1,7.687-5.014,7.687-3.008,0-4.011-1.337-4.344-3.008l-.334-.335h-1.337l-.334.335c.334,2.674,2.339,4.679,6.349,4.679,4.346,0,7.018-2.674,7.018-9.358V13.467l-.334-.334h-1l-.334.334-.334,2.007h-.335c-.668-1.337-2.339-2.675-5.348-2.675-4.678,0-7.018,3.677-7.018,8.691s2.34,8.689,7.018,8.689c3.009,0,4.68-1.335,5.348-2.674ZM432.474,14.471c3.342,0,5.68,2.674,5.68,7.019s-2.338,7.018-5.68,7.018-5.683-2.674-5.683-7.018,2.34-7.019,5.683-7.019m0,15.707c4.345,0,7.686-3.008,7.686-8.689s-3.342-8.691-7.686-8.691-7.687,3.009-7.687,8.691,3.341,8.689,7.687,8.689m-10.027-.668V6.784l-.334-.334h-1.337l-.335.334V29.511l.335.334h1.337Zm-12.031-15.04c3.341,0,5.681,2.674,5.681,7.019s-2.34,7.018-5.681,7.018-5.683-2.674-5.683-7.018,2.34-7.019,5.683-7.019m0,15.707c4.345,0,7.688-3.008,7.688-8.689s-3.343-8.691-7.688-8.691-7.687,3.009-7.687,8.691,3.343,8.689,7.687,8.689m-9.692-.668V19.484c0-4.344-2.339-6.684-6.015-6.684a6.071,6.071,0,0,0-5.348,2.675h-.335l-.332-2.007-.335-.334h-1l-.334.334V29.511l.334.334h1.338l.332-.334V20.487c0-3.677,1.672-6.015,5.348-6.015,2.674,0,4.344,1.671,4.344,5.012V29.511l.335.334h1.337Zm-17.046,0V19.484c0-4.344-2.34-6.684-6.015-6.684a6.072,6.072,0,0,0-5.347,2.675h-.334V6.784l-.334-.334h-1.337l-.335.334V29.511l.335.334h1.337l.334-.334V20.487c0-3.677,1.672-6.015,5.347-6.015,2.674,0,4.345,1.671,4.345,5.012V29.511l.334.334h1.338ZM354.937,21.49c0-4.68,2.339-7.019,5.681-7.019s4.678,2,5.012,4.009l.334.335H367.3l.334-.335c-.334-3.341-3.009-5.681-7.018-5.681-4.345,0-7.686,2.675-7.686,8.691s3.341,8.689,7.686,8.689c4.009,0,6.684-2.34,7.018-5.681l-.334-.334h-1.338l-.334.334c-.334,2-1.671,4.011-5.012,4.011s-5.681-2.34-5.681-7.018m-3.677.669.335-.335v-1c0-4.68-2.675-8.023-7.355-8.023s-7.352,3.343-7.352,8.023v.668c0,4.678,2.34,8.689,7.688,8.689,4.678,0,6.349-3.008,6.684-5.014l-.335-.334H349.59l-.335.334a4.452,4.452,0,0,1-4.678,3.343c-4.345,0-5.681-4.011-5.681-6.015l.334-.334Zm-2.006-1.672H339.228l-.334-.334c0-2.34,1.337-5.681,5.346-5.681s5.349,3.341,5.349,5.681Zm-9.005-12.7v-1l-.334-.334h-17.38l-.335.334v1l.335.334h7.352l.334.334V29.511l.335.334h1.337l.334-.334V8.454l.334-.334h7.354Z" transform="translate(-242.937 -4.863)"/>
    <path id="Path_805" data-name="Path 805" d="M79.263,20.332v4.649H64.17V1.587h5.314V20.332ZM9.483,24.982a11.7,11.7,0,0,0,11.324-8.754L34.043,26.568,47.27,16.234v8.747H62.362V20.332H52.583V1.587H47.27v8.747L34.582,20.247,31.745,18.03l6.074-4.746,6.614-5.167-3.776-2.95L27.969,15.08l-2.838-2.217L37.819,2.95,34.043,0,20.807,10.341A11.7,11.7,0,0,0,9.483,1.587H0v23.4Zm-4.17-4.649V6.236h4.17c3.526,0,6.384,3.155,6.384,7.048s-2.858,7.048-6.384,7.048Z"/>
  </g>
</svg>
