<svg xmlns="http://www.w3.org/2000/svg" class="w-full" viewBox="0 0 1280 47">
<path id="wave_00000178890094313763267490000005517704207909174156_" class="st0" d="M0,0.2c0.3,0.6,3.6,1.1,7.3,2.5
	c2.3,0.8,4.6,1.5,6.9,2c14.8,4.9,37.2,11.3,54,16.9c13.3,3.8,25.9,7.1,42.6,10.2c2.7,0.5,2.8,0.8,5.7,1.2c2.1,0.5,3.4,0.2,5.6,0.8
	c3.7,0.7,10.6,1.2,14.1,1.9c8,0.4,15,1.3,23.6,1.7c3.2,0.8,26.9,0.7,29,1c9.3-0.5,21.2-0.6,31-1.3c14.1-0.5,26.8-2.3,39.6-4
	c22.3-2.9,36-5.7,57.5-10.2c17.2-3.6,31.7-5.9,51.6-9c12.3-2.3,28.2-4.6,42.1-3.9c2.3,0.1,11.1-0.4,15.2,0c7.1,0.5,14.1,1.5,21,3.1
	c2,0.3,9.8,2.9,13,3.4c6.2,1.8,10.5,4.2,16.6,6.5c13,4.3,17.6,7.5,29.7,11.7c21,7.7,51.7,11.6,82.4,12.4c20.1-0.4,40.2-2.8,59.9-7
	c28-4.2,56.1-12.6,81.4-19.7c11.2-2.7,22.6-6.2,35.9-8c17.2-2.6,39.6-4.6,58.8-2.9c9.4,0.5,19.4,1,28.7,1.8c0.5,0.1,1.1,0.2,1.6,0.2
	c1.1-0.1,3.7,0.7,4.5,0.6c3.2,0,8.6,0.8,12.4,1.1c17.4,2.3,32.2,5.9,47,9.2c8.6,1.6,10.1,2.5,17,3.9c5.8,0.9,11.5,2.1,17.2,3.6
	c7.4,0.5,15,2.4,22.9,2.9c5.6,0.4,13.1,1.5,18.3,1.7c21.9,2.7,45.2,3.1,69.1,3.5c17.7-0.4,30.9-1.6,47.6-2.1
	c11.6-0.4,23.3-2.4,33.8-3.3c9.5-1,20.4-3.5,30.1-5.1c22.4-4,105.6-27.4,105.6-27.4" fill="#d6d2c4"/>
</svg>
