
<svg xmlns="http://www.w3.org/2000/svg" class="w-full" viewBox="0 0 327 314">
<defs>
<g id="hookem_0_Layer0_0_FILL">
<path fill="#F8971F" stroke="none" d="
M 2.25 28.05
L 2.2 28.05
Q -0.3 29.6 -6.2 31.1 -12.8 32.85 -16.45 33.6 -18.65 34.2 -19.6 34.65 -21.05 34.9 -21.75 35.05 -23 35.4 -23.3 36.35 -22.95 38.9 -21.1 42.9 -20.4 44.65 -20.3 44.95 -19.35 46.6 -18.2 47.9 -15.25 51.15 -6.6 50.8 -3.8 50.5 -0.95 48.45 -0.85 48.4 0.35 47.6 1.25 47.05 1.5 46.55 3.35 44.05 4.05 40.4 4.65 37 4.1 33.5 3.9 31.15 3.65 29.75 3.15 27.1 2.25 28.05
M 23.6 -30.95
Q 22.8 -31.85 22.8 -32 22.95 -32.2 22.55 -32.45 22.15 -32.7 22.15 -32.85 22.15 -33.1 21.95 -33.1 21.85 -33.2 21.85 -33.4 21.85 -33.6 21.65 -33.7
L 19.9 -35.3
Q 18.8 -36.25 17.95 -36.5 17.3 -37.35 15.15 -37.5 14.45 -37.55 11.95 -37.45
L 11.9 -37.5
Q 8.35 -36.4 5.85 -34.65 2.6 -32.4 1.9 -29.55 0.1 -24.1 0.45 -18.4 0.65 -15.2 2.25 -7.25 2.4 -6.85 2.35 -6.3 2.45 -5.9 3.15 -5.7 5.05 -5.15 6.3 -4.6 7.1 -4.2 8.95 -3.25 9.9 -2.75 10.6 -2.05
L 11.85 -0.8
Q 12.05 -0.5 12.7 0.05 13.2 0.5 13.6 1.35 16.4 4.7 16.3 10.6 16.25 16.2 13.9 19.85 13.75 20.1 12.55 21.6 12.2 22.3 9.6 23.6 7.35 24.75 7.65 25.75 7.85 26.45 9.7 34.85 10.9 40.35 12.45 43.75 13.2 45.6 14.45 47.1 16 49 17.5 49.2 19.65 49.95 22.1 49.6 24.75 49.2 26.45 47.7 26.8 47.55 27.4 46.6 28 45.65 28.25 45.55 28.35 45.45 28.5 45.15 28.65 44.85 28.95 44.65 29.4 44.3 29.7 43.4 30.1 42.05 30.1 42 30.65 41.25 31.1 39.55 31.7 37.15 31.75 37 31.9 36.25 31.85 35.15 31.75 34 31.9 33 32.65 23.35 31.95 12.9 31.4 4.6 29.7 -6.75 29.5 -7.7 29.2 -11.35 28.95 -14.45 28.55 -15.45 28.3 -15.7 28.4 -16.35 28.55 -17.05 28.4 -17.4 27.4 -23.1 24.9 -28.45 24.85 -28.8 24.6 -29.25 24.3 -29.85 24.25 -30 24.4 -30.15 23.6 -30.95
M 49 -54.65
Q 48.55 -53.45 47.6 -51 46.75 -48.85 46.3 -47.35 45.85 -46.6 45.35 -44.9 44.8 -43.15 44.4 -42.45
L 43.25 -39.4
Q 42.5 -37.4 42 -36.4 41.35 -35.1 41 -32.85 40.6 -31.5 40.15 -29.85 39.85 -28.75 39.35 -27.4 36.8 -20.1 36.25 -18.4 34.6 -13.25 33.9 -9.1 33.9 -9.05 33.6 -8 33.45 -7.35 33.75 -6.95 33.8 -6.6 34.05 -5.35 34.25 -4.25 34.2 -4.05 34.1 -2.3 34.5 -0.15 34.5 0.3 34.4 1 34.4 1.65 34.7 2.2 34.8 3 35.1 6.75 35.35 10.1 35.55 11 35.5 13.25 35.8 17.6 36.1 21.9 36 24.35 35.9 28 35.9 30.75 35.85 32.45 35.35 35.8 35.05 38.75 34.9 39.55 34.5 41.8 33.5 43.7 33.2 44.7 32.2 46 30.85 47.8 30.7 48.05 30.7 48.25 30.2 48.65 29.95 48.85 29.75 49.15 29.65 49.4 29.45 49.4 28.7 49.8 27 50.75 25.55 51.55 24.65 51.75 22.9 52.1 20.6 51.95 17.95 51.75 17.2 50.9 15.3 49.95 14.35 49.65 14.25 49.65 13.9 49.3 13.6 48.9 13.45 48.9 13.25 48.9 13.15 48.7 10.7 46.55 8.65 42.75 7.95 42.1 7 43.35 6.3 44.3 5.95 45.3 5.45 46.05 4.4 47.95 3.4 49.65 2.6 50.3 -0.3 53.2 -6.25 54.25 -10.5 54.5 -10.55 54.35 -10.95 54.05 -12.3 54.2 -13.75 54.35 -13.05 55.25 -12.4 56.7 -10.35 59.6 -10.3 59.95 -10.05 60.55 -9.75 61.15 -9.45 61.3 -8.85 62.95 -8.45 63.65 -7.9 64.65 -7.25 66.75 -6.65 68.9 -6.25 69.6 -6.1 70.8 -5.4 73.1 -4.65 75.5 -4.45 76.55 -3.6 80.4 -3.15 83.3
L -2.3 88.7
Q -2.2 89.35 -1.95 89.55 -1.65 89.7 -0.65 89.75 0.95 89.65 4.8 89.25 8.2 88.95 10 89.05 11.6 89.3 13.6 89.25 16.35 89.2 17 89.2 18.25 89.15 23.85 89.2 27.8 89.25 30.2 88.85 30.6 88.7 31.95 88.6 33.05 88.45 32.85 87.8 32.8 87.5 32.9 87.35 32.95 87.15 32.95 86.9 32.9 86.7 33 86.65 33.15 86.55 33.15 86.35 33.15 86.1 33.3 85.7 33.5 85.3 33.6 85.3 33.75 83.9 35.25 80.35 35.85 77.1 37.4 72.05 39.6 64.5 39.8 63.75 40.1 62.5 40.8 60.45 41.85 57.6 41.95 57.2 42.5 54.45 43.1 52.7 43.5 51.55 44.3 48.05 45 45.1 45.7 43.4 48.85 31.8 50.35 25.9 51.05 23.35 52.3 19.65 53.9 14.95 54.35 13.45 55.1 10.65 55.25 9.85 55.85 8.7 56.05 8.1 56.35 7.2 56.5 5.9 57.05 4.6 57.35 3.9 57.85 2.75 57.95 1.9 58.25 0.35 59 -1.65 59.9 -3.95 60.35 -5.1 60.95 -7.3 61.25 -8.45 61.8 -10.45 62.5 -12 62.9 -13.25 65.35 -20.3 66.05 -22.6 66.35 -23.65 66.9 -25.45 67.5 -26.75 67.65 -27.15 68.05 -28.7 68.4 -30.15 68.8 -30.95 69.4 -32.2 69.8 -34.15 70.35 -36.45 70.65 -37.35 72.8 -44.75 73.2 -46.9 74.35 -52.3 73.8 -56.75 73.4 -61.8 70.35 -64.6 67.2 -67.55 62.2 -66.95
L 62.2 -66.9
Q 60.8 -66.55 59.2 -65.95 57.2 -65.2 56.65 -64.6 53.7 -62.7 51.75 -60.05 51.55 -59.65 50.45 -57.3 49.6 -55.55 49 -54.65
M -21.15 -1.55
Q -23.75 -0.8 -24.85 -0.45 -26.95 0.35 -31.35 1.05 -34.9 2.35 -36.7 2.75 -38 3.4 -40.9 4.55 -43.45 5.55 -45.05 6.4 -50.05 9.1 -55 13.7 -58.75 16.55 -61.75 20.65 -63.5 23.05 -66.8 28.15 -71.9 37.1 -71.3 48.15 -70.75 58.7 -65.3 67.85 -62.65 72.65 -57.1 78.95 -48.9 88.2 -47.95 89.45 -46.75 91 -45.65 91.2 -45.55 91.2 -41.9 91.15 -40.75 91.1 -37.45 91.05 -34.8 91.05 -32.8 90.8 -31.9 90.75 -30.3 90.6 -29.7 90.55 -28 90.75 -23.15 90.75 -20.15 90.45 -18.4 90.6 -14.55 90.5 -10.25 90.4 -8.35 90.5 -7 90.5 -6.45 90.3 -5.9 90.05 -5.9 89.5 -5.55 89.25 -5.8 87.2 -5.85 86.85 -6.3 84.35 -6.75 79.1 -7.45 76.6 -9.3 67.8 -11.85 62.85 -12.8 60.75 -14.8 57.65 -17.55 53.4 -17.95 52.7 -20.2 49.55 -23.4 46.95 -23.6 46.6 -24.35 45.85
L -25.45 44.75
Q -26.35 43.65 -26.75 43.45 -28.75 42.05 -29.7 41.4 -31.35 40.3 -32.6 39.7 -33.4 39.05 -33.85 38.75 -34.55 38.25 -35.2 38.15 -36.5 37.5 -34.85 37.5 -34.05 37.45 -33.4 37.15 -32.6 36.75 -32.3 36.65 -32.05 36.55 -30.5 36.2 -29.25 35.95 -28.6 35.5 -24.25 33.95 -22 33.6 -21.1 33.3 -20.25 32.95 -19.55 32.75 -17.9 32.5 -16.55 32.05 -14.15 31.15 -12.1 30.45 -10.55 30.1 -8.05 29.15 -2.75 27.4 1.95 25.7 4.6 23.75 7 22.2 8.15 21.35 10.2 19.8 11.1 18.2 13.2 16.35 13.25 12.55 13.3 9.35 12.05 6.1 11.1 3.3 8.7 1.15 6.4 -1 3.55 -1.8 1.45 -3.05 -1.9 -3.45 -3.8 -3.65 -8.1 -3.65
L -8.15 -3.65
Q -8.8 -3.55 -12.35 -3.3 -15.35 -3.1 -16.6 -2.65 -17 -2.55 -18.85 -2 -20.3 -1.5 -21.15 -1.55
M -10.95 -32.85
Q -11.65 -33.8 -13.05 -34.8 -13.2 -34.85 -15.55 -36.35 -16.6 -36.7 -19.1 -36.9 -21.6 -37.05 -22.3 -36.8 -25.95 -35.75 -27.55 -34.65 -29 -33.6 -30.75 -31.15 -32.55 -28.7 -33.2 -26.8 -33.85 -25.1 -33.95 -23 -34 -21.75 -33.95 -19.25 -34.05 -13.4 -32.6 -8.45 -31.85 -3.8 -31.55 -3.45 -30.8 -2.55 -26.6 -3.6 -25.55 -3.7 -23.7 -3.85 -22.05 -4.05 -20.85 -4.3 -19.4 -4.45 -17.1 -5.1 -14.85 -5.7 -13.55 -5.85 -7.2 -6.5 -6.5 -6.65 -4.9 -6.7 -4.1 -7.2 -2.95 -7.9 -3.6 -9.35
L -6 -19.05
Q -7.25 -23.75 -8 -26.1 -9.25 -30.2 -10.95 -32.85
M -48.85 -77.45
Q -49.1 -78.6 -49.55 -79.85 -50.4 -82.1 -50.45 -82.15 -51.1 -83.95 -51.5 -84.7 -52.15 -86 -53.35 -87.2 -56.5 -90.8 -59.7 -91.15 -70 -89.8 -72.8 -80.6 -74.55 -74.8 -73.6 -62.1 -73.2 -57.1 -71.85 -46.95 -71.55 -44.2 -70.65 -39.5 -69.7 -34.4 -69.4 -32.1 -69.1 -31.2 -68.8 -29 -68.5 -26.55 -68.3 -25.75 -66.55 -18.95 -65.95 -16.3 -63.75 -4.4 -62.6 2.85 -62.5 3.65 -62 5.85 -61.6 7.75 -61.5 8.8 -61.3 9.9 -60.25 9.55 -59.7 9.35 -58.55 8.7 -58.2 8.6 -57.45 8.05 -56.8 7.55 -56.35 7.6 -56.1 7.6 -55.6 7.35 -55.1 7.1 -55 6.9 -54.65 6.75 -53.7 6.45 -52.9 6.1 -52.55 5.65 -51.75 5.45 -50.25 4.55 -48.7 3.6 -48 3.4 -46.8 2.65 -45.25 2.25 -43.7 1.8 -42.75 1.2 -42.1 0.7 -41.2 0.7 -40.8 0.7 -40.1 0.25 -39.3 -0.2 -38.9 -0.25 -38.3 -0.45 -37.3 -0.75 -36.4 -1.1 -35.7 -1.6 -35.3 -1.9 -35.5 -2.8 -35.7 -3.9 -35.6 -4.15 -37.35 -15.05 -37.85 -20.05 -38.8 -24.9 -39.45 -31.25 -40.2 -35.5 -40.25 -36.2 -40.2 -37.1 -40.75 -39.05 -41.35 -41.2 -41.4 -41.65 -41.25 -41.85 -41.45 -43.1 -41.65 -44.25 -41.85 -44.9 -43.75 -55.45 -45.05 -60.8 -45.95 -66.35 -46.55 -69.3 -47.55 -73.95 -48.85 -77.45 Z"/>
</g>

<g id="squiggle_orng_0_Layer0_0_FILL">
<path fill="#FFFFFF" stroke="none" d="
M 491.8 546.75
Q 489.1 547.2 488.85 547.25 485.25 548.5 483.5 549.25 481.15 550.45 479.25 551.2 478.35 551.6 476.45 552.65 474.5 553.7 473.65 554.05 472.85 554.3 471.55 555.2 469.9 556.3 469.55 556.5 467.7 557.5 467.2 557.9 465.5 558.9 457.4 564.05 451.45 567.85 447.35 569.75 444.65 570.8 443.45 571.1 441.85 571.45 439 571.6 434.8 571 432.1 568.3 429.05 565.25 429.7 561.05 430.35 556.2 433.55 550.55 434.4 548.8 436.15 545.95 438.35 542.45 438.95 541.4 440.15 538.85 440.75 537.45 441.85 534.95 442.1 533.35 442.4 532.45 442.4 529.15 442.35 526.1 442.15 524.9 442.1 524.35 441.85 523.95 441.6 523.5 441.55 523.15 441.35 522.2 440.8 521.2 440.05 520 439.6 519.2 438.6 517.35 437.6 516.15 436.8 515.25 434.45 512.9 431.35 510.4 425.9 508.35 423.6 507.55 422.5 507.15 420.55 506.55 418.95 506.35 414.9 505.35 411.2 505.2 408.15 504.6 403.25 504.85
L 403.25 504.9
Q 402.45 505 399.9 505.15 397.75 505.25 396.55 505.55 395.3 505.85 391.5 506.35 388 506.85 386.2 507.3 375.4 509.7 367.1 513.55 366.35 513.75 365.15 514.4 363.7 515.2 363.2 515.4 359.2 517.6 357.6 519.2 351.3 523.05 348.9 528.5 345.75 536.5 346.65 540.45 346.35 543.35 347.65 546.25 348.9 548.9 351.3 551.15 353.8 553.75 357.2 554.85 360.15 555.85 364.15 555.8 365.6 555.6 367.95 554.9 371.15 553.95 371.75 553.8 380.05 550.95 384 548.6 391.9 544.5 395 543.8 401.8 542.35 405.15 547.85 407.25 551.5 405.5 555.6 404.5 557.95 401.45 562.55 397.15 569.25 393.8 579.55 392.4 584.4 392.55 589.75 392.7 595.2 394.45 599.6 394.95 601 396.5 603.7 398.1 606.5 398.6 607.8 399.9 609.6 401.75 611.4 403.85 613.45 405.45 614.2 411.3 617.5 420.05 616.7 427.3 616.05 434.55 612.9 437.4 611.65 440.95 608.75 442.15 607.75 446.85 603.5
L 450.3 600.25
Q 452.6 598.05 454.2 597.55 459.8 594.55 464.85 595.45 470.65 596.5 472.55 602.55 473.65 605.7 473.1 609 472.75 611.1 471.25 615 470.5 616.35 468.8 619.5 467.4 622.15 466.4 623.8 464.4 627.1 463.35 629.2 463.25 629.8 462.65 631.1 462.35 631.75 461.85 632.75 461.8 632.9 461.55 633.3 461.3 633.6 461.35 633.95 461.4 634.5 461.1 634.75 460.3 636.15 459.9 637.9 458.3 642.4 458.65 648.35 458.95 654.4 461.1 657.8 461.45 658.2 461.8 659.25 462.25 660.45 462.5 660.85 462.8 661.4 464.6 663.65 465.2 664.3 466.25 665.45 467.2 666.5 468.35 667.4 470.5 668.6 475.1 671 477.2 671.6 479.15 672.45 480 672.45 481.55 672.95 483.4 673.5 483.75 673.55 484 673.75 485.65 673.9 487.25 674.05 487.4 674.15 488 674.5 489.9 674.65 492 674.8 492.5 674.95 494.2 675.5 497.45 675.5 502.15 675.55 502.2 675.55 507.15 675.65 513.3 675.15 519.3 674.7 524.2 673.8 526.65 673.4 533.45 671.65 534.3 671.35 535.15 671 535.85 670.8 537.1 670.55 538.55 670.3 541.2 669.2 542.5 669.05 544.05 668.5 545.95 667.8 546.6 667.65 548.3 667.1 549.4 666.3 551.65 665.25 556.55 663.15 556.65 663.1 557.8 662.4 558.55 661.95 559.15 661.85 563.45 660.75 566.45 658.7 570.8 656.7 576.2 651.95
L 576.6 651.65
Q 576.65 651.65 577.05 651.3 577.4 650.9 577.5 650.95 577.7 650.95 578 650.8 578.3 650.6 578.3 650.5 579.75 648.95 580.45 648.4 588.6 641.6 591.8 632.45 595.1 623.05 592.4 612.9 591.35 608.65 588.3 604.9 586.45 603.35 585.4 602.45 583.5 600.9 582.35 600.15 576.4 598.1 569.95 598.15 562.9 598.15 557.5 600.7 554.6 601.6 550.45 604.05 544.3 607.65 543.7 607.95 540.75 609.45 537.65 611.3 536.7 611.65 534.8 613.05 532.85 614.45 531.9 614.8 530.6 615.4 527.65 617.15 525 618.7 523.4 619.3 521.85 620.15 521 620.55 519.55 621.3 518.4 621.3 512.25 622.1 509.75 619.9 506.6 618.4 504.45 614.3 503.65 613.2 503.4 610.8 503.15 608.9 503.35 606.8 503.15 605.55 503.5 603.55 503.95 601.2 503.95 600.05 504.5 595.85 507.1 590.7 507.9 589.1 512.05 582.05 513.95 579.9 516.3 574.95 518.15 572 518.6 570.35 521 564.15 520.1 558.15 519.05 551.35 513.9 548.2 507.6 544 494.75 546.05 493.6 546.4 491.8 546.75 Z"/>
</g>

<g id="WarpedAsset_1_0_Layer0_0_FILL">
<path fill="#D6D2C4" stroke="none" d="
M 9.45 -75.15
Q 8.85 -75.15 7.65 -74.95 6.75 -74.8 6 -74.95 5.55 -74.85 4.15 -75.15 2.9 -75.4 2.35 -75.2
L 2.35 -75.25
Q 0.2 -74.7 -4.05 -74.8 -7.5 -74.85 -7.45 -74.75 -7.65 -74.6 -7.85 -74.7 -19.85 -74.9 -25.3 -74.55 -26 -74.75 -27.4 -74.45 -29 -74.15 -28.65 -73.5 -28.4 -72.5 -28.4 -69.75 -28.4 -66.3 -28.35 -65.75 -28.15 -56.9 -28.15 -42.6 -28.2 -24.9 -28.15 -19.15 -33.4 -18.85 -42.2 -18.8 -51.8 -18.8 -56.5 -18.6 -59.75 -19 -65.95 -18.95 -72.4 -18.85 -75.45 -19.2
L -78.5 -19 -79.8 -19.05
Q -81.2 -19.05 -81.75 -19 -82.65 -18.85 -82.35 -17.75 -82.45 -16.8 -81.75 -15.25 -80.85 -13.35 -80.8 -13 -80.6 -12.2 -79.75 -10.85 -78.8 -9.25 -78.55 -8.7 -78.55 -8.15 -76.85 -6.15 -76.8 -5.35 -76.1 -4.15 -75.3 -2.85 -75.15 -2.35 -74.8 -2 -73.9 -0.85 -73 0.15 -72.45 0.35 -71.85 0.55 -71.55 1.65 -71.35 2.25 -71.1 3.4 -71 3.85 -70.55 4.85 -70.15 5.85 -70.05 6.35 -69.9 7.3 -69.35 8.5 -68.75 9.95 -68.6 10.4 -67.4 12.9 -67.45 14.3 -67.3 15.4 -66.2 16.55
L -64.5 18.45
Q -64.4 18.65 -64 18.9 -63.6 19.1 -63.55 19.2 -62.65 20.45 -60.3 22.8 -59.65 23.6 -57.85 24.05 -55.85 24.55 -55.35 24.95 -53.6 26.8 -51.2 27.3 -50.45 27.35 -49.5 27 -48.15 26.5 -47.85 26.45 -47.35 26.3 -46.8 26 -46.25 25.6 -45.8 25.5 -42.85 24.7 -38.65 21.95 -34.3 18.6 -25.05 20.75 -24.9 20.8 -24.1 21.3 -23.25 21.8 -23 21.8 -22.65 22.05 -22.25 22.3 -22.05 22.5 -22 23.3 -21.95 24.15 -21.6 24.9 -21.1 25.9 -21.05 26.15 -21 26.8 -20.6 27.3
L -19.95 28.25
Q -19.8 28.45 -19.65 29.15 -19.5 29.8 -19.4 29.9 -19 30.85 -18.55 32.55 -18 34.65 -17.8 35.35 -17.85 35.6 -17.25 36.9 -16.6 38.15 -16.75 38.55 -17.1 38.95 -16.65 39.8 -16.3 40.6 -15.85 40.9 -15.7 40.9 -15.8 43.25 -15.95 45.5 -15.55 45.4 -14.65 46.6 -14.5 47.45 -14.45 48.2 -14 49.4 -13.75 50.1 -13.3 51.15 -13.1 51.85 -12.35 52.9 -11.95 53.5 -11.2 54.6 -11.15 54.75 -9.55 57.6 -9.3 58.7 -6.35 60.5 -5.45 61.2 -4.65 62.55 -3.75 64.1 -2.9 64.95 -2.7 65.15 -2 66.05 -1.55 66.6 -1.05 66.95 -0.8 67.25 -0.4 67.4 -0.05 67.5 0.2 67.9 0.95 68.9 2.55 70.25 4.4 71.8 5.05 72.5 5.45 72.95 6.3 73.5 7 73.95 7.55 74.75 8.15 75.65 9.35 75.05 10.05 74.65 11.5 73.4 12.9 72.25 15.55 68.95 17.55 66.5 17.9 64.05 17.95 64 18.05 63.7 18.15 63.5 18.4 63.45 19.2 63.1 20 61.95 20.6 61.25 22.2 59.2 23.65 57.45 24.45 57 25.8 55.8 26.05 55.4 26.4 54.95 27.6 54.45 28.9 53.9 29.2 53.6 29.9 52.75 33.15 49.8 33.7 49.45 34.9 48.8 35.95 48.15 36.4 47.5
L 37 45.45
Q 37.4 43.95 37.7 43.95 39.55 41.55 40.75 40.95 41.05 40.75 42.4 39.95 43.6 39.25 44.05 38.85 44.25 38.85 44.25 38.7 44.25 38.6 44.5 38.3 44.8 38 44.9 38 46.3 36.95 49.55 35.5 50.95 34.6 54.1 32.25 54.3 32.05 54.85 31.85 55.35 31.65 55.55 31.4 55.7 31.15 56.1 31.15 57.65 31.1 59.15 29.85 59.85 29.6 60.65 29.05 61.55 28.4 62.55 27.9 63.75 27.35 63.75 27.3 64.1 27.1 64.65 26.5 64.8 26.4 64.95 26.1 65.1 25.85 65.25 25.9 66.65 25.35 68.55 24.15 72.05 22.15 72.6 19.9 72.8 19.05 73.1 16.15 73.3 13.4 73.55 12.65 73.95 11.6 73.4 9 73.25 8.7 73.5 7.7 73.8 6.5 73.8 6.35 73.65 6.1 73.9 5.25 74.2 4.4 74.2 4.2 74.45 1.85 76.1 0.3 76.55 -0.35 76.65 -1.3 76.7 -1.7 76.75 -3.6 76.75 -5.1 77.9 -8.1 78.95 -10.85 78.7 -12.3 78.6 -12.3 78.55 -13 78.5 -13.65 78.35 -13.65 78.15 -13.75 78.3 -13.85 78.45 -14 78.4 -16.05 79.65 -20.35 79.75 -21.1 80 -22.2 81.5 -26.55 82.5 -29.45 82.5 -32.65 82.55 -33.7 82.2 -33.85 81.9 -34 79.5 -34 77.35 -34.1 76.1 -33.9 74.5 -33.6 74.15 -33.6
L 68.05 -33.2
Q 66.9 -33.15 62.9 -33.4 59.6 -33.55 57 -33.3 54.55 -33.05 53.45 -32.95 51.5 -32.8 49.95 -32.95 49.5 -32.85 49.25 -32.85 48.85 -32.8 48.6 -33.1 47.85 -33.3 45.8 -33.4 43.55 -33.45 42.7 -33.5 39.75 -33.55 34.75 -33 34.4 -33.2 32.65 -33.3 30.9 -33.35 29.95 -33.15 29.25 -33.05 26.3 -33.15 23.6 -33.25 22.9 -33.05 21.85 -32.95 19.9 -33.35 18.35 -33.65 16.45 -33.2 15.55 -32.9 15.9 -34.95 16.05 -36.6 16 -40 15.9 -44.05 16 -46.25
L 16 -66.35
Q 15.8 -68.95 15.65 -70.4 15.45 -73.15 15.75 -74.45 16.15 -74.95 15 -75.15 14 -75.3 13.45 -75.2 11.45 -75.4 9.45 -75.15 Z"/>
</g>
</defs>

<g id="hookem" transform="matrix( 0.758636474609375, 0, 0, 0.758636474609375, 126.5,71.15) ">
<g transform="matrix( 1, 0, 0, 1, 0,0) ">
<use xlink:href="#hookem_0_Layer0_0_FILL"/>
</g>
</g>

<g id="squiggle_orng" transform="matrix( 0.8258209228515625, 0, 0, 0.8258209228515625, 104.05,240.2) ">
<g transform="matrix( 1, 0, 0, 1, -470,-590.15) ">
<use xlink:href="#squiggle_orng_0_Layer0_0_FILL"/>
</g>
</g>

<g transform="matrix( 1, 0, 0, 1, 238.55,183.2) ">
<g transform="matrix( 1, 0, 0, 1, 0,0) ">
<g transform="matrix( 1, 0, 0, 1, 0,0) ">
<use xlink:href="#WarpedAsset_1_0_Layer0_0_FILL"/>
</g>
</g>
</g>
</svg>
