
<svg xmlns="http://www.w3.org/2000/svg" class="w-full" viewBox="0 0 354 362">
<defs>
<g id="cloud_0_Layer0_0_FILL">
<path fill="#FFFFFF" stroke="none" d="
M 816.75 81.45
Q 815.1 81.25 814.25 81.1 800 82.45 792.2 80.75 789.9 79.8 788.7 79.15 786.55 78.1 785.65 76.95 785.5 76.9 785.15 76.5 784.9 76.1 784.65 76.2 784.55 75.8 784.3 75.75 783.65 75.35 783.05 74.5 782.3 73.25 782.1 73.05 782 72.75 781.7 72.65 781.45 72.55 781.45 72.25 781.25 71.75 780.5 70.75 779.7 69.7 779.5 69.25 778.75 67.55 777.75 64.25 776.65 60.65 776.05 59.15 772.8 50.5 768.8 46.45 765.5 41 758.4 38.55 752.5 36.5 745 36.75
L 744.95 36.75
Q 740.2 37.7 735.6 39.7 729.75 42.25 727.7 45.2 727.05 45.55 726.6 46.2 725.7 47.4 725.65 47.5 724.85 48.3 724.35 49.55 723.65 51.35 723.45 51.7 723.25 51.85 723.15 52.75 723.05 53.55 722.8 53.65 722.3 53.65 722.3 54.7 722.25 55.05 722 55.9 721.8 56.6 721.75 57.4 721.35 60.5 721 67.65 720.3 73.95 717.95 77.25 717.35 78.05 716 78.85 714.4 79.65 713.7 80 712.45 80.55 710.7 80.25 709.8 80.15 707.65 79.45 706.3 78.95 703.75 76.95 701.1 74.9 699.85 74.35 690.8 71.55 685.75 73.5 682.05 74.4 678.1 78.75 676.5 81.1 675.4 84.6 675 85.95 673.8 90.85 673.6 91.5 672.85 94.45 672.35 96.5 671.65 97.85 670.2 100 669.45 101.05 668.1 102.8 667.05 103.5 664.75 105.15 659.4 105.4 653.65 105.7 651.5 106.8 638.6 110.55 635 123.6 631.45 136.4 639.55 147.15 644.7 153.8 654.65 156.35 662.85 158.5 672.7 157.55 673.9 157.6 675.2 157.3 675.45 157.25 678 156.6 679 156.45 680.1 155.85 681.35 155.15 682 154.95 683.3 154.45 685 153.2 687.15 151.6 687.8 151.25 693.35 146.4 697.2 144.6 702.8 142.05 708.6 143.55 713.25 144.45 718.05 148.85 720.7 151.25 725.9 156.1 731.45 158.85 737.85 159 744.7 159.2 749.9 156.3 753.1 154.7 755.35 151.1 755.7 150.4 756.6 149.3 757.4 148.3 757.85 147.2 758.9 145.1 758.95 145.05 759.1 144.85 760.05 143.65 760.45 143.2 761.85 141.25 762.7 140 763.9 139.1 766.85 136.8 770.8 135.9 775 134.95 778.4 136.05 784.6 138.25 791.65 142.1 792.4 142.35 794.45 143.45 796.35 144.5 797.2 144.75 797.85 144.8 799.05 145.15 799.75 145.35 800.9 145.65 804.4 147.2 813.1 146.95 814.9 147.15 817.6 146.65 821.15 146.05 821.8 146 824.95 144.9 826.3 144.3 828.85 143.2 830.6 141.95 833.15 140.3 837.75 134.95 841.3 130 841.35 129.9 843.1 127.05 843.35 124.05 844.35 118.05 843.6 111.65 842.8 105.35 840.4 99.7 838.75 96.7 837.85 95.15 836.25 92.4 834.65 91.05 828.25 84.8 821.7 82.6 821.35 82.4 820.15 82.35 818.95 82.25 818.6 82.1 818.1 81.7 816.75 81.45 Z"/>
</g>

<g id="sun_0_Layer0_0_FILL">
<path fill="#F8971F" stroke="none" d="
M 327.3 64.15
L 324 52.75
Q 323.55 51.85 323.15 48.55
L 321.75 44.35
Q 321.7 44.25 320.95 41.05 320.45 38.95 319.35 39.5
L 319.3 39.5
Q 318.5 41.55 316.9 44.6 315.05 48 314.35 49.65 312.9 53.65 309.75 61.5 306.65 69.35 305.15 73.35
L 301.5 83.9
Q 299.4 89.1 299.15 89.8 297.95 93.1 297.35 95.8 295.65 94.25 292.4 91.65 288.95 88.95 287.4 87.55 273.45 74.85 269.05 70.65 265.85 67.2 264.55 65.95 263.2 64.9 261.15 63.05 259.2 61.25 258.05 60.4 257.05 59.8 255.65 58.65 254.2 57.4 253.45 56.95 253.05 56.85 252.3 56.25 251.3 55.5 251.25 55.45 251.1 55.35 250.65 54.8 250.3 54.4 249.6 54.15 248.35 53.9 249.3 57.45 250.5 62.05 250.5 62.25 250.75 63.1 251.3 65.95 251.75 68.25 252.25 69.6 255.05 83.4 259.45 97.55 260.25 99.75 261.35 104.15 262.4 108.45 263.25 110.6 263.35 110.7 263.4 111.25 263.45 111.8 263.6 111.9 263.65 112.3 262.15 112.9 260.25 113.65 260.2 113.7 254.95 115.85 244.75 120.15 238.1 122.6 234.45 124.25 228.15 126.35 225.35 127.65 224.2 128.05 221.8 129.1 219.5 130.15 218.25 130.55 217.4 130.75 216.05 131.4 214.4 132.2 213.8 132.4 212.8 132.8 210.6 133.5 208.4 134.15 207.5 134.55 206.95 134.75 205.7 135.5 204.5 136.2 203.85 136.4 203.5 136.5 202.7 137.1 202 137.65 201.6 137.65 200.35 138.4 201.8 138.7 202.95 139 204 138.85 206.25 139.25 207.25 139.1 212.9 139.5 221 139.6 226.15 140.2 236.2 140.15 244.6 140.1 250.45 139.75 258.05 138.95 257.85 139.95 255.4 142.95 253.1 146.55 244.7 158.15 240.55 163.85 233.15 174 228.85 181.55 227.55 183.6 226.1 186.5 225.3 188.2 223.65 191.7 222.95 193.35 221.95 194.9 221.95 194.95 221.55 195.7 221.2 196.3 221.55 196.5
L 221.8 196.75
Q 223.35 196.45 225.1 195.75 227.35 194.8 228.3 194.55 229.25 194.3 230.7 193.55 232.05 192.85 233 192.6 237.7 190.7 244 187.55 246.1 186.5 254.75 181.95 256.35 181.25 260.3 179.1 262.75 178 265.95 176.1 268.75 174.65 269.3 174.4 269.35 175.1 269.65 176.75 269.85 178.15 270 180.25 270.3 183.55 270.95 193.2 271.55 201.5 272.05 206.25 272.25 207.65 272.55 214.35 272.85 220.6 273.2 221.9 273.2 227 273.85 229.4 274 234.9 277.95 228.8 279.5 226.55 282.6 222.4 283.1 221.4 285.5 217.65
L 293.5 204.15
Q 295.3 201.6 297.4 198.05 298.6 196 301 191.8 301.05 191.45 302.75 188.65 303.35 187.65 303.6 187.45 304.1 187.05 304.65 187.75 304.7 187.85 305 187.95 305.25 188.05 305.3 188.3 305.4 188.55 305.7 188.65 306.05 188.7 306.1 189 306.7 189.85 308.9 191.45 311.6 193.65 317.6 198.05 319.25 199.35 322.45 201.7 325.25 203.8 327.1 205.6 328.35 206.55 331.1 208.5 333.5 210.3 335.05 211.65 336.7 212.8 339.9 214.8 343.25 216.9 344.8 217.95 344.9 218.1 345.75 218.55 346.55 219 346.7 219 346.85 218.9 347.2 218.7 347.5 218.45 347.25 218.15 347.15 217.95 347.15 217.1 347.2 216.3 347 216.1 346.8 215.85 346.95 215.3 347.05 214.7 346.85 214.1 346.8 213.75 346.45 212.45 346.2 211.4 346.3 210.75 346.1 208 345.35 203.55 344.4 197.85 344.2 196.45 344 192.9 343.3 187.15 342.45 180.3 342.25 177.95 340.65 169 340.45 167.25 340.05 164.75 339.85 163.45 339.5 161.25 339.7 159.65 339.6 158.75 340.05 158.6 340.3 158.5 341.1 158.65 341.85 158.6 342.7 158.45 343.7 158.35 346.65 158.4 355.05 158.45 355.7 158.8 357.95 159 363.3 159 367.9 159.05 370 159.35 372.35 159.4 374.55 159.75 376.85 160.1 378.8 160.15 379.75 160.1 381.4 160 382.9 160 384.45 160.2 386.9 160.4 392.25 160.45 397.75 160.5 399.9 160.65 400.8 160.9 400.95 160.25 401.05 159.55 400.35 159.35 398.5 157.85 396.4 156.45 394.5 155.3 393.9 154.9 393.85 154.7 393.55 154.5 393.2 154.25 393.2 154.2 390 151.65 388.2 150.3 387.75 150.05 385.45 148.25 383.3 146.55 382.2 146.1
L 376.3 141.4
Q 375.5 140.55 374.55 140.05 374.25 139.95 373.6 139.35 372.95 138.8 372.6 138.7 371.85 138.3 369.25 136.3 368.2 135.4 365.4 133.5 362.9 131.75 361.6 130.5
L 356.75 127.15
Q 356.45 126.95 355.35 125.9 354.4 125 353.9 124.8 353.6 124.7 354 124.35 354.5 123.9 354.5 123.8 354.8 123.2 355.95 121.7 357 120.3 357.25 119.7 358.85 117.8 361.6 114.3 364.1 111.2 366.45 108.75 367.5 107.55 371.25 103.2 374.25 99.75 376.15 97.75 384.2 88.45 387 84.9 388 83.95 388 82.9 388 81.7 385.8 82.9
L 380.05 84.15
Q 377.85 84.75 372.05 86.5 366.7 88.7 362.85 89.55 362 89.8 358.95 90.6 356.35 91.25 354.9 91.8 352.45 92.65 348.9 94.05 345.1 95.55 342.9 96.3 342.15 96.35 340.7 96.75 339 97.25 338.45 97.35 338.15 97.6 337.55 97.75 336.8 97.95 336.55 98.05 336 98.35 335.7 97.8 335.4 97.05 335.25 96.75 334.85 95.2 333.9 90.15 332.95 87.85 332.1 84.3 331.25 80.25 330.75 78.25
L 328.85 71.3
Q 327.7 67.1 327.3 64.15 Z"/>
</g>
</defs>

<g id="cloud" transform="matrix( 1, 0, 0, 1, 109,297) ">
<g transform="matrix( 1, 0, 0, 1, -738.9,-97.85) ">
<use xlink:href="#cloud_0_Layer0_0_FILL"/>
</g>
</g>

<g id="sun" transform="matrix( 0.997589111328125, -0.06939697265625, 0.06939697265625, 0.997589111328125, 215.95,138.8) ">
<g transform="matrix( 1, 0, 0, 1, -300.95,-135.7) ">
<use xlink:href="#sun_0_Layer0_0_FILL"/>
</g>
</g>
</svg>
