<svg id="sxsw_Logo" data-name="sxsw Logo" xmlns="http://www.w3.org/2000/svg" class="w-full" viewBox="0 0 256.579 60">
  <path id="Shape" d="M56.842,57.632V42.55H25.5L56.842,10.772,46.217,0,14.875,31.778V0H0V57.632Z" transform="translate(199.737 0.789)" fill="#fff"/>
  <path id="Shape-2" data-name="Shape" d="M20.26,0C33.589,0,41.053,8,41.053,19.737v1.6H27.724V20.27c0-5.868-2.666-9.068-8-9.068s-5.865,1.6-5.865,4.8,1.6,4.267,4.265,5.334L26.658,24c9.6,3.2,14.4,7.468,14.4,17.07s-8.53,18.137-20.26,18.137S0,51.743,0,39.474v-1.6H12.8V38.94c0,5.868,3.2,9.068,8.53,9.068s6.4-1.6,6.4-5.334-1.6-4.267-4.8-5.334l-9.064-2.667C6.4,32.006.533,27.738.533,17.6S8,0,20.26,0Z" fill="#fff"/>
  <path id="Shape-3" data-name="Shape" d="M32.273,27.469,48.947,57.093H33.887L24.2,39.857,15.061,57.632H0L16.674,28.008,1.076,0h15.6l8.606,16.158L33.887,0H48.409Z" transform="translate(38.684 0.789)" fill="#fff"/>
  <path id="Shape-4" data-name="Shape" d="M20.385,0C33.8,0,41.306,8.036,41.306,19.821v1.607H28.431V20.357c0-5.893-2.682-9.107-8.047-9.107s-5.9,2.143-5.9,5.357,1.609,4.286,4.291,5.357l8.583,2.679c9.656,3.214,14.484,7.5,14.484,17.143S33.259,60,21.457,60,0,52.5,0,40.179V38.036H12.874v1.071c0,5.893,3.219,9.107,8.583,9.107s6.437-1.607,6.437-5.357-1.609-4.286-4.828-5.357l-8.583-2.679C6.437,32.143,1.073,27.857,1.073,17.679S8.047,0,20.385,0Z" transform="translate(86.053)" fill="#fff"/>
  <path id="Shape-5" data-name="Shape" d="M38.9,0,44.23,37h.533L50.625,0H63.947L53.289,56.842H37.3L31.974,20.377h-.533L26.112,56.842H10.658L0,0H14.388L20.25,37h.533L26.112,0Z" transform="translate(128.684 0.789)" fill="#fff"/>
  <path id="Shape-6" data-name="Shape" d="M1.974,3.947A1.974,1.974,0,1,1,3.947,1.974,1.976,1.976,0,0,1,1.974,3.947Zm0-3.454A1.448,1.448,0,0,0,.493,1.974a1.448,1.448,0,0,0,1.481,1.48,1.448,1.448,0,0,0,1.48-1.48A1.448,1.448,0,0,0,1.974.493ZM2.467,2.96H1.481V.986h.986V2.959Z" transform="translate(185.526 53.684)" fill="#fff"/>
</svg>
