<svg xmlns="http://www.w3.org/2000/svg" class="w-full" viewBox="0 0 425.072 59.776">
  <g id="sxsw-edu-2018" transform="translate(-0.752)">
    <path id="Shape" d="M57.6,57.6V42.688H25.872L57.616,11.04,46.584,0,14.912,31.584V0H0V57.6Z" transform="translate(368.208 1)" fill="#fff"/>
    <path id="Shape-2" data-name="Shape" d="M20.336,0c13.712,0,20.8,8.04,20.8,19.92v1.736h-12.8V20.472c0-5.76-2.56-9.32-8.136-9.32-3.744,0-6.032,1.92-6.032,5.3,0,2.648,1.552,4.3,4.568,5.3l8.5,2.832c9.5,3.1,14.808,7.768,14.808,17.088,0,11.88-8.68,18.1-20.288,18.1C7.5,59.776,0,52.464,0,39.944V38.3H12.936v1.192c0,5.944,3.016,9.232,8.8,9.232,3.928,0,6.4-1.832,6.4-5.208,0-3.016-1.648-4.48-5.12-5.6l-8.8-2.744C6.264,32.7.616,28.224.616,18.08.6,7.312,8.264,0,20.336,0Z" transform="translate(0.752)" fill="#fff"/>
    <path id="Shape-3" data-name="Shape" d="M32.352,27.7l17,29.9H33.9L24.3,40,14.9,57.6H0L17,28.16,1.184,0H16.632L25.04,16.184,33.448,0H48.256Z" transform="translate(40.288 1.088)" fill="#fff"/>
    <path id="Shape-4" data-name="Shape" d="M20.336,0c13.712,0,20.8,8.04,20.8,19.92v1.736h-12.8V20.472c0-5.76-2.56-9.32-8.136-9.32-3.744,0-6.032,1.92-6.032,5.3,0,2.648,1.552,4.3,4.568,5.3l8.5,2.832c9.5,3.1,14.808,7.768,14.808,17.088,0,11.88-8.68,18.1-20.288,18.1C7.5,59.776,0,52.464,0,39.944V38.3H12.888v1.192c0,5.944,3.016,9.232,8.8,9.232,3.928,0,6.4-1.832,6.4-5.208,0-3.016-1.648-4.48-5.12-5.6l-8.8-2.744C6.216,32.7.568,28.224.568,18.08.6,7.312,8.272,0,20.336,0Z" transform="translate(87.216)" fill="#fff"/>
    <path id="Shape-5" data-name="Shape" d="M39.392,0l5.48,37.016h.368L51.272,0H64.72L53.928,57.6h-16L32.536,20.68h-.368L26.784,57.6h-16L0,0H14.32l6.032,37.016h.368L26.232,0Z" transform="translate(130 1)" fill="#fff"/>
    <path id="Shape-6" data-name="Shape" d="M36.376,57.6H0V0H36.192V11.9H14.168v10.7H30.616v11.7H14.168V45.712H36.376Z" transform="translate(212.592 1.088)" fill="#fff"/>
    <path id="Shape-7" data-name="Shape" d="M20.384,57.6H0V0H20.384A28.761,28.761,0,0,1,31.113,1.839,18.375,18.375,0,0,1,38.5,7.171a22.768,22.768,0,0,1,4.269,8.546A43.42,43.42,0,0,1,44.144,27.2v3.2A43.512,43.512,0,0,1,42.77,41.9,22.729,22.729,0,0,1,38.5,50.444a18.35,18.35,0,0,1-7.388,5.322A28.828,28.828,0,0,1,20.384,57.6ZM14.44,11.536V46.08H19.1a13.862,13.862,0,0,0,4.466-.629A7.418,7.418,0,0,0,26.8,43.374c1.769-1.966,2.629-5.116,2.629-9.63V23.872c0-4.514-.86-7.664-2.629-9.629a7.418,7.418,0,0,0-3.233-2.077,13.862,13.862,0,0,0-4.466-.629Z" transform="translate(254.48 1.088)" fill="#fff"/>
    <path id="Shape-8" data-name="Shape" d="M0,36.208V0H14.352V35.112c0,7.128,1.192,11.424,7.68,11.424s7.64-4.3,7.64-11.424V0h14.4V36.208c0,14.992-8.592,22.4-22.024,22.4S0,51.2,0,36.208Z" transform="translate(303.344 1.088)" fill="#fff"/>
    <path id="Shape-9" data-name="Shape" d="M3.143,6.161H3.08A3.08,3.08,0,1,1,6.161,3.08a3.032,3.032,0,0,1-.878,2.191A3,3,0,0,1,3.143,6.161Zm-.1-5.6A2.56,2.56,0,1,0,5.6,3.12,2.471,2.471,0,0,0,3.132.52H3.1V.56ZM4.728,4.728h0L3.8,4.712c-.083-.076-.118-.214-.152-.592-.031-.356-.168-.488-.5-.488H2.624V4.7h-.8V1.5h1.6c.781,0,1.247.377,1.247,1.008a.8.8,0,0,1-.7.841.642.642,0,0,1,.592.64c0,.491.053.628.166.734Zm-2.1-2.576v.841L3.16,3c.4,0,.592-.135.592-.424s-.183-.424-.592-.424H2.624Z" transform="translate(347.024 52.744)" fill="#fff"/>
  </g>
</svg>
