<svg xmlns="http://www.w3.org/2000/svg" class="w-full" viewBox="0 0 66.356 81.785">
  <defs>
    <style>
      .cls-1 {
        fill: #f8971f;
      }
    </style>
  </defs>
  <path id="hookem" class="cls-1" d="M33.755,284.79a4.514,4.514,0,0,1,2.851,1.773,5.269,5.269,0,0,1,1.316,2.267,15.8,15.8,0,0,1,.708,2.1,38.3,38.3,0,0,1,1.694,7.459c.6,2.4.933,4.634,1.452,7.145a4.441,4.441,0,0,1,.191,1.454c.039.539.528,1.731.523,2.447a17.539,17.539,0,0,0,.355,2.219,45.137,45.137,0,0,0,.719,5.013c.224,2.244.708,4.928,1,7.129-.113.313.272.926-.054,1.151a4.908,4.908,0,0,1-1.422.6c-.379.067-.7.407-1.032.436a1.385,1.385,0,0,0-.691.22c-.906.551-1.327.339-2.368.977-.661.207-1.349.856-2.04,1.012-.237.315-.775.424-1.1.557a1.236,1.236,0,0,1-.589.325c-.393-.023-.62.4-1,.493-.441.136-1.16.842-1.308.028-.069-.839-.388-1.813-.493-2.66-.464-2.805-1-5.782-1.522-8.584-.312-1.433-.629-2.6-1.055-4.239-.2-.83-.231-2.144-.48-2.858-.315-2.268-.843-4.372-1.1-6.657-.213-2.1-.6-4.532-.789-6.783-.412-5.633-.7-12.13,6.236-13.024m54.66,10.868a7.271,7.271,0,0,0-2.482,1.037,7.522,7.522,0,0,0-2.183,2.054c-.419.747-.781,1.723-1.247,2.41-.406,1.078-.89,2.187-1.21,3.269-.389.655-.456,1.522-.846,2.2-.309.79-.686,1.949-1.072,2.715a5.2,5.2,0,0,0-.464,1.6c-.442,1.442-.325,1.321-.727,2.441a51.893,51.893,0,0,0-2.441,8.2c-.039.354-.306.671-.078.978a11.008,11.008,0,0,1,.21,1.305A9.394,9.394,0,0,0,76,325.608a1.851,1.851,0,0,0,.1,1.047c.132.9.208,3.237.375,3.943-.074,2.062.294,3.851.191,5.981a31.471,31.471,0,0,1-.272,5.15,9.044,9.044,0,0,1-.849,3.535,9.169,9.169,0,0,1-1.239,1.95,1.321,1.321,0,0,1-.242.279c-.226.172-.177.3-.338.33a11.118,11.118,0,0,1-2.144,1.053c-.9.166-2.857.149-3.344-.377-.38-.155-.857-.439-1.267-.568-.1-.009-.293-.338-.41-.325a.151.151,0,0,1-.135-.1A10.063,10.063,0,0,1,64.4,344.83c-.479-.448-1.1.816-1.2,1.158a11.616,11.616,0,0,1-1.509,2.247,7.181,7.181,0,0,1-3.971,1.757,11.408,11.408,0,0,1-1.926.049c-.133-.106-1.6-.221-1.114.413a22.562,22.562,0,0,0,1.2,1.95,1.427,1.427,0,0,0,.4.745,5.393,5.393,0,0,0,.464,1.066c.459.836.6,1.974.971,2.652.139,1.01.643,2.114.808,3.112a27.43,27.43,0,0,1,.589,3.039c.113.686.282,1.615.38,2.42.044.383.138.442.747.462a37.8,37.8,0,0,1,4.768-.308,22.756,22.756,0,0,0,3.148.059,57.843,57.843,0,0,0,5.914-.147c.345-.13,1.342,0,1.19-.464-.049-.257.083-.192.048-.4-.045-.178.085-.082.077-.258,0-.15.152-.469.222-.469a9.51,9.51,0,0,1,.728-2.209c.47-2.45,1.4-5.016,2.051-7.454.226-.945.663-2.009.96-2.933a13.386,13.386,0,0,1,.511-2c.452-1.4.619-2.809,1.169-4.175.683-2.55,1.412-5.213,2.082-7.851.539-2.013,1.2-3.608,1.788-5.583.209-.759.27-.942.4-1.61a3.922,3.922,0,0,0,.561-1.775,8.892,8.892,0,0,0,.664-1.785,15.894,15.894,0,0,1,1.076-3.153,21.246,21.246,0,0,1,.957-3.08c.378-1.22.867-2.511,1.293-3.739a19.048,19.048,0,0,1,.96-2.874,13.987,13.987,0,0,1,.568-1.883,25.259,25.259,0,0,0,.83-2.882c.847-2.878,1.772-5.644,1.41-8.7-.227-2.923-2.116-4.937-5.2-4.566M65.877,308.85c-1.716.529-4.054,1.669-4.5,3.563-1.209,3.633-.583,6.335.172,10.006.139.328-.147.542.39.675a10.31,10.31,0,0,1,2.606,1.115,4.644,4.644,0,0,1,1.306,1.089c.284.433.478.285.783.965,1.753,2.091,1.46,6.23.14,8.29a4.122,4.122,0,0,1-.619.787c-.359.761-2.436,1.041-2.178,1.868.736,2.684.986,5.488,2.147,8.06.358.858,1.257,2.309,2.25,2.446a4.306,4.306,0,0,0,4.023-.676c.3-.135.572-.852.8-.97.143-.089.083-.23.317-.4.349-.263.355-.852.524-1.179a10.931,10.931,0,0,0,.732-2.255c.133-.681-.067-.925.07-1.786a76.315,76.315,0,0,0-.988-17.826,32.279,32.279,0,0,0-.526-3.906c-.2-.191.072-.552-.049-.87a21.473,21.473,0,0,0-1.572-4.964c-.035-.268-.235-.471-.294-.686.1-.107-.68-.734-.655-.9.117-.176-.287-.229-.3-.374a.144.144,0,0,0-.083-.132c-.118-.075.015-.176-.147-.268-.529-.39-1.03-1.061-1.651-1.249-.486-.579-2-.444-2.7-.431m-15.339.32a7.354,7.354,0,0,0-2.353.968,9.293,9.293,0,0,0-2.539,3.506,8.686,8.686,0,0,0-.335,3.377,17.806,17.806,0,0,0,.611,4.853c.378,2.371-.042,2.862,2.679,2.18a22.732,22.732,0,0,0,2.588-.325c1.288-.16,2.077-.55,3.282-.694.669-.071,2.762-.274,3.148-.355.717-.02,1.726-.239,1.306-1.209-.328-1.346-.762-3.041-1.082-4.353-.628-2.066-1-4.293-2.21-6.169a6.892,6.892,0,0,0-2.075-1.568,7.955,7.955,0,0,0-3.019-.212m6.347,14.868a25.4,25.4,0,0,0-3.8.451,12.023,12.023,0,0,1-2.051.475c-.485.187-1.172.351-1.662.495a15.119,15.119,0,0,1-2.9.684c-.776.226-1.586.586-2.407.768-1.347.642-2.429.944-3.736,1.626a25.221,25.221,0,0,0-4.476,3.285c-2.6,1.982-3.662,4.125-5.277,6.466-3.115,5.466-2.507,12.494.671,17.813,2.021,3.632,5.2,6.39,7.768,9.668.816,1.042,1.062.786,2.722.764,1.471-.094,2.477.024,4.087-.149a7.413,7.413,0,0,1,2.142-.026,31.192,31.192,0,0,0,3.509-.141c1.489.153,3.493-.055,5.295.022.81.005,1.106-.112,1.112-.442.228-.168-.092-1.791-.191-2.311a33.587,33.587,0,0,0-.512-3.473,24.146,24.146,0,0,0-1.962-6.146,47.95,47.95,0,0,0-2.75-4.559,14.933,14.933,0,0,0-2.441-2.567,7.78,7.78,0,0,0-.918-1c-.168-.12-.409-.5-.593-.575a19.136,19.136,0,0,0-2.611-1.69c-.4-.264-.718-.634-1.171-.694-.358-.164-.386-.282.165-.3.628-.012.68-.261,1.14-.367a7.757,7.757,0,0,0,1.651-.509,20.38,20.38,0,0,1,2.954-.858,5.271,5.271,0,0,1,1.85-.487,25.316,25.316,0,0,1,3.29-1.079c2.217-.87,4.847-1.416,6.8-2.854a8.669,8.669,0,0,0,2.909-2.482c1.36-1.226,1.08-3.765.42-5.439a5.8,5.8,0,0,0-3.8-3.527c-1.427-.854-3.38-.844-5.23-.845m4.639,14.194a14.623,14.623,0,0,1-3.78,1.38c-1.5.356-2.948.775-4.6,1.113a8.7,8.7,0,0,0-1.408.48c-.583.166-1.45.058-1.651.761a11.559,11.559,0,0,0,.975,2.934,8.682,8.682,0,0,1,.374.924,10.291,10.291,0,0,0,.927,1.313c1.19,1.291,3.544,1.359,5.206,1.29a4.775,4.775,0,0,0,2.539-1.04c.3-.256.9-.472,1.084-.859a7.975,7.975,0,0,0,1.185-5.857c-.13-.534-.185-3.1-.85-2.439" transform="translate(-27.341 -284.79)"/>
</svg>
