<svg id="Texas_Capital_Bank" data-name="Texas Capital Bank" xmlns="http://www.w3.org/2000/svg" xmlns:xlink="http://www.w3.org/1999/xlink" class="w-full" viewBox="0 0 245.21 32">
  <defs>
    <clipPath id="clip-path">
      <rect id="Rectangle_808" data-name="Rectangle 808" width="245.21" height="32" fill="none"/>
    </clipPath>
  </defs>
  <path id="Path_915" data-name="Path 915" d="M40.291,28.5H32.6l-2.378-7.317L27.842,28.5H20.148l6.224,4.523-2.378,7.317,6.224-4.522,6.224,4.522-2.378-7.317Z" transform="translate(-14.165 -14.895)" fill="#003"/>
  <g id="Group_2382" data-name="Group 2382" transform="translate(0 0)">
    <g id="Group_2381" data-name="Group 2381" clip-path="url(#clip-path)">
      <path id="Path_916" data-name="Path 916" d="M15.952,1.293A14.729,14.729,0,1,1,1.293,15.948,14.693,14.693,0,0,1,15.952,1.293Zm0-1.293h0a16,16,0,0,0,.058,32h.009a16,16,0,1,0-.064-32" transform="translate(0 0)" fill="#003"/>
      <path id="Path_917" data-name="Path 917" d="M139.037,23.628H123.28l-.156,5.652.454.032.018-.036c1.655-3.441,3.268-5.044,5.075-5.044h.936V39.457c0,1.082-.863,1.553-2.979,1.625l-.057,0v.449h9.151v-.449l-.057,0c-2.116-.072-2.979-.542-2.979-1.625V24.232h.936c1.787,0,3.408,1.6,5.1,5.045l.018.036.453-.032Z" transform="translate(-86.56 -16.611)" fill="#003"/>
      <path id="Path_918" data-name="Path 918" d="M184.042,52.177l-.035.045c-1.051,1.359-1.969,2.146-3.551,2.146-2.471,0-3.947-1.876-3.947-5.018v-.578h7.83l0-.055a5.285,5.285,0,0,0-1.262-4.031,5,5,0,0,0-3.773-1.467,6,6,0,0,0-5.826,6.285,5.662,5.662,0,0,0,5.826,6.005,5.594,5.594,0,0,0,5.077-3.014l.029-.047Zm-7.5-3.984c.184-2.82,1.1-4.372,2.59-4.372a2,2,0,0,1,1.547.612c.62.679.853,1.943.695,3.76Z" transform="translate(-121.962 -30.384)" fill="#003"/>
      <path id="Path_919" data-name="Path 919" d="M223.287,55.363c-1.083-.2-1.446-.491-2.591-2.069l-3.01-4.148,1.962-2.439c1.329-1.636,2.046-2.125,3.485-2.378l.049-.009V43.9h-5.043v.415l.048.009c.686.128,1.083.356,1.212.7.155.41-.07.994-.687,1.785l-1.4,1.823-1.841-2.713c-.358-.543-.545-.9-.442-1.135.1-.213.447-.354,1.141-.458l.05-.007V43.9H210v.417l.051.007c1.2.179,1.583.466,2.717,2.043l2.831,3.892-2.293,2.8c-1.28,1.556-2.01,2.073-3.257,2.3l-.049.009v.415h5.095V55.37l-.051-.008c-.83-.124-1.3-.355-1.442-.707-.151-.379.066-.935.664-1.7l1.711-2.181L218,53.745c.356.528.555.9.444,1.149-.1.227-.5.372-1.27.469l-.052.007v.418h6.217v-.415Z" transform="translate(-147.636 -30.867)" fill="#003"/>
      <path id="Path_920" data-name="Path 920" d="M268.278,54.35c-.683.283-1.159.325-1.452.129-.273-.182-.405-.59-.405-1.248V47.286c0-2.564-1.463-3.81-4.474-3.81-2.874,0-4.805,1.07-4.805,2.662a1.5,1.5,0,0,0,1.539,1.565,1.464,1.464,0,0,0,1.591-1.565,1.925,1.925,0,0,0-.663-1.378,3.027,3.027,0,0,1,2.032-.68c1.407,0,2.007.829,2.007,2.773v1.8a7.889,7.889,0,0,1-1.206.256,14.19,14.19,0,0,0-4.224,1.211,2.923,2.923,0,0,0-1.562,2.629,2.78,2.78,0,0,0,.8,1.994,3.487,3.487,0,0,0,2.527.9,4.97,4.97,0,0,0,3.778-2.016h.022c.17,1.413.783,1.965,2.171,1.965a4.372,4.372,0,0,0,2.481-.877l.042-.026-.143-.358Zm-4.63-5.1v3.71a2.925,2.925,0,0,1-2.186,1.389c-1.179,0-1.829-.722-1.829-2.033,0-1.6.56-2.382,4.015-3.066" transform="translate(-180.438 -30.565)" fill="#003"/>
      <path id="Path_921" data-name="Path 921" d="M303.956,47.838c-2.144-.557-2.941-1.129-2.941-2.111a1.894,1.894,0,0,1,2.007-1.905c1.543,0,2.284.952,3.726,3.289l.018.028h.45V43.218h-.369l-.624.773a5.975,5.975,0,0,0-2.869-.773c-2.615,0-4.372,1.531-4.372,3.81,0,2.049,1.316,2.812,3.743,3.5s3.2,1.285,3.2,2.469a1.959,1.959,0,0,1-2.135,1.905c-1.761,0-2.7-.8-4.388-3.721l-.017-.03h-.451v4.355h.366l.826-.9a7.835,7.835,0,0,0,3.358.9c3.02,0,4.372-2,4.372-3.989,0-2.174-1.491-3.02-3.9-3.681" transform="translate(-210.158 -30.384)" fill="#003"/>
      <path id="Path_922" data-name="Path 922" d="M367.61,35.235c-1.257,2.742-3.4,4.252-6.044,4.252-4.589,0-6.218-4.476-6.218-8.31,0-4.239,1.459-8.769,5.555-8.769,2.565,0,4.445,1.755,5.915,5.525l.015.038h.432v-6.32h-.34l-1.11,1.186a10.071,10.071,0,0,0-4.58-1.033,9.308,9.308,0,0,0-9.373,9.654,9.289,9.289,0,0,0,2.419,6.637,8.612,8.612,0,0,0,6.367,2.48,7.944,7.944,0,0,0,7.505-5.062l.022-.05-.538-.285Z" transform="translate(-247.369 -15.221)" fill="#003"/>
      <path id="Path_923" data-name="Path 923" d="M422.969,54.684l-.143-.357-.055.023c-.684.283-1.158.325-1.452.129-.273-.182-.405-.59-.405-1.248V47.286c0-2.564-1.464-3.81-4.474-3.81-2.874,0-4.806,1.07-4.806,2.662a1.5,1.5,0,0,0,1.539,1.565,1.464,1.464,0,0,0,1.59-1.565,1.925,1.925,0,0,0-.663-1.378,3.026,3.026,0,0,1,2.032-.68c1.407,0,2.008.829,2.008,2.773v1.8a7.885,7.885,0,0,1-1.206.256,14.19,14.19,0,0,0-4.224,1.211,2.923,2.923,0,0,0-1.562,2.629,2.781,2.781,0,0,0,.8,1.994,3.488,3.488,0,0,0,2.527.9,4.972,4.972,0,0,0,3.778-2.016h.022c.17,1.413.783,1.965,2.171,1.965a4.371,4.371,0,0,0,2.481-.877Zm-4.828-5.438v3.71a2.925,2.925,0,0,1-2.186,1.389c-1.18,0-1.829-.722-1.829-2.033,0-1.6.56-2.382,4.015-3.066" transform="translate(-289.05 -30.565)" fill="#003"/>
      <path id="Path_924" data-name="Path 924" d="M457.163,43.218a5.4,5.4,0,0,0-3.819,1.755v-1.6l-4.558.184v.421h.058c1.455.026,1.753.5,1.753,1.216V58.842c0,.74-.278.885-1.753.91h-.058v.424h7.034v-.424h-.058c-1.946-.026-2.366-.187-2.366-.91V54.806a6.115,6.115,0,0,0,3,.7c3.22,0,5.469-2.6,5.469-6.311,0-3.632-1.846-5.979-4.7-5.979m-3.768,2.405a3.393,3.393,0,0,1,2.492-1.24c1.808,0,2.977,1.95,2.977,4.967,0,3.685-.976,5.554-2.9,5.554a2.581,2.581,0,0,1-2.569-1.891Z" transform="translate(-315.509 -30.384)" fill="#003"/>
      <path id="Path_925" data-name="Path 925" d="M502.4,28.368a1.675,1.675,0,0,0,1.744-1.795A1.634,1.634,0,0,0,502.4,24.83a1.677,1.677,0,0,0-1.718,1.82,1.61,1.61,0,0,0,1.718,1.718" transform="translate(-351.997 -17.456)" fill="#003"/>
      <path id="Path_926" data-name="Path 926" d="M500.62,54.326v-10.6l-4.661.183v.422h.058c1.586.027,1.8.6,1.8,1.216v8.778c0,.715-.337.885-1.8.91h-.058v.424h6.523v-.424h-.058c-1.592-.025-1.8-.206-1.8-.91" transform="translate(-348.674 -30.741)" fill="#003"/>
      <path id="Path_927" data-name="Path 927" d="M526.209,43.232c-.616,1.114-1.32,1.679-2.092,1.679-1.022,0-1.42-.577-1.42-2.058v-7.9h3.624v-.91H522.7V29.729l-2.8,1.013v3.235l-2.373.562v.438H519.9v7.646c0,2.323,1.021,3.453,3.121,3.453,1.566,0,2.744-.846,3.6-2.585l.023-.047-.4-.269Z" transform="translate(-363.836 -20.9)" fill="#003"/>
      <path id="Path_928" data-name="Path 928" d="M561.969,54.35c-.683.283-1.158.325-1.452.129-.273-.182-.405-.59-.405-1.248V47.286c0-2.564-1.463-3.81-4.474-3.81-2.874,0-4.805,1.07-4.805,2.662a1.5,1.5,0,0,0,1.539,1.565,1.464,1.464,0,0,0,1.591-1.565,1.926,1.926,0,0,0-.663-1.378,3.026,3.026,0,0,1,2.032-.68c1.407,0,2.008.829,2.008,2.773v1.8a7.886,7.886,0,0,1-1.206.256,14.188,14.188,0,0,0-4.224,1.211,2.923,2.923,0,0,0-1.562,2.629,2.782,2.782,0,0,0,.8,1.994,3.488,3.488,0,0,0,2.527.9,4.971,4.971,0,0,0,3.778-2.016h.022c.17,1.413.783,1.965,2.171,1.965a4.37,4.37,0,0,0,2.481-.877l.042-.026-.143-.357Zm-4.63-5.1v3.71a2.925,2.925,0,0,1-2.186,1.389c-1.179,0-1.829-.722-1.829-2.033,0-1.6.56-2.382,4.015-3.066" transform="translate(-386.911 -30.565)" fill="#003"/>
      <path id="Path_929" data-name="Path 929" d="M595.745,38.984V21.9l-4.782.155-.057,0v.422h.058c1.788.051,1.984.436,1.984,1.242V38.984c0,.681-.233.883-1.779.91h-.058v.424h6.447v-.424H597.5c-1.523-.026-1.753-.228-1.753-.91" transform="translate(-415.425 -15.398)" fill="#003"/>
      <path id="Path_930" data-name="Path 930" d="M642.707,32.053c3.189-.315,5.088-1.844,5.088-4.105,0-3.759-4.37-4.321-6.974-4.321h-8.072v.423l.057,0c1.682.058,2.724.35,2.724,1.625V39.456c0,.945-.456,1.547-2.724,1.625l-.057,0v.449h8.3c6.733,0,7.459-3.575,7.459-5.112,0-2.641-2.059-4.189-5.8-4.366m-1.861-.26h-2.212V24.231h2.11c3.385,0,3.819,2.027,3.819,3.793,0,2.606-1.146,3.768-3.717,3.768m.306,9.135h-2.518V32.4h2.288c3.536,0,4.278,2.215,4.278,4.074,0,2.823-.663,4.457-4.049,4.457" transform="translate(-444.842 -16.61)" fill="#003"/>
      <path id="Path_931" data-name="Path 931" d="M701.854,54.35c-.683.283-1.159.325-1.452.129-.273-.182-.405-.59-.405-1.248V47.286c0-2.564-1.464-3.81-4.474-3.81-2.874,0-4.805,1.07-4.805,2.662a1.5,1.5,0,0,0,1.539,1.565,1.464,1.464,0,0,0,1.591-1.565,1.926,1.926,0,0,0-.663-1.378,3.026,3.026,0,0,1,2.032-.68c1.407,0,2.008.829,2.008,2.773v1.8a7.886,7.886,0,0,1-1.206.256,14.188,14.188,0,0,0-4.224,1.211,2.923,2.923,0,0,0-1.562,2.629,2.782,2.782,0,0,0,.8,1.994,3.488,3.488,0,0,0,2.527.9,4.971,4.971,0,0,0,3.778-2.016h.022c.17,1.413.783,1.965,2.171,1.965a4.371,4.371,0,0,0,2.481-.877l.042-.026-.143-.357Zm-4.63-5.1v3.71a2.925,2.925,0,0,1-2.186,1.389c-1.179,0-1.829-.722-1.829-2.033,0-1.6.56-2.382,4.015-3.066" transform="translate(-485.254 -30.565)" fill="#003"/>
      <path id="Path_932" data-name="Path 932" d="M743.16,54.15V47.108c0-2.342-1.136-3.632-3.2-3.632a5.322,5.322,0,0,0-4.355,2.691V43.55l-4.558.183v.422h.058c1.455.026,1.753.5,1.753,1.216V54.15c0,.715-.328.885-1.753.91h-.058v.424h6.115v-.424h-.058c-1.163-.026-1.447-.2-1.447-.91V46.995c.72-1.354,1.677-2.1,2.7-2.1,1.426,0,2.008.781,2.008,2.7V54.15c0,.706-.289.884-1.473.91h-.058v.424h6.141v-.424h-.059c-1.523-.026-1.753-.228-1.753-.91" transform="translate(-513.949 -30.565)" fill="#003"/>
      <path id="Path_933" data-name="Path 933" d="M792.329,39.893c-1.149-.125-1.381-.3-2.484-1.863l-3.8-5.369,1.341-1.342c1.661-1.609,2.559-2.161,4-2.46l.047-.01v-.414H785.91v.415l.049.009c.863.16,1.36.423,1.475.78.108.333-.108.784-.639,1.34l-3.649,3.748V21.9l-4.782.155-.058,0v.421l.058,0c1.788.051,1.983.436,1.983,1.242V38.983c0,.682-.23.884-1.753.91h-.058v.424H784.5v-.424h-.058c-1.016-.026-1.294-.222-1.294-.91V35.537l1.08-1.081,2.792,4.049c.316.461.419.771.324.974-.1.219-.452.354-1.072.413l-.054.005v.42h6.166V39.9Z" transform="translate(-547.172 -15.398)" fill="#003"/>
    </g>
  </g>
</svg>
