
<svg xmlns="http://www.w3.org/2000/svg" class="w-full" viewBox="0 0 480 520">
<defs>
<g id="Tween_15_0_Layer0_0_FILL">
<path fill="#FFFFFF" stroke="none" d="
M 330.65 362.15
L 330.65 362.2
Q 327.75 362.6 324.15 363.7 320.1 365.05 318 365.7 316.05 366.65 311.95 368.4 307.75 370.15 305.85 371.1 304.1 371.45 301.9 372.35 301.65 372.45 298.1 373.95 293.7 374.8 293.25 374.95 291.6 375.35 288.5 375.15 283.55 374.75 283.4 374.75 279.75 374.1 278.05 373.8 275.1 373.3 272.7 373.3 269.15 373.05 262.55 373.35 261.75 373.35 259.85 373.85 258.1 374.3 257.05 374.25 256.6 374.35 254.65 375.05 253.1 375.6 252.05 375.7 252.05 375.85 250.3 376.55 248.55 377.2 248.5 377.4 248.2 377.85 247.3 378.35 246.2 378.9 245.9 379.15 243.05 381.55 240.8 384.7 240.25 385.3 240.05 385.7 239.9 385.95 239.65 386.85 239.7 386.95 239.05 388.45 238.3 390.2 238.2 390.95 237.75 393.3 238 396.75 238.2 400.2 239 402.15 239.6 403.9 241.15 405.4 242.05 406.25 244.15 407.7 247.95 410.7 253.4 410.8 255.5 411.45 258.05 410.95 260.6 410.45 263.9 409.2 265.75 408.45 269.4 407 274 404.25 276.7 403.35 281.25 401.8 284.6 403.35 288.1 404.95 288.75 409.4 289.15 412.3 288.3 417.55 288 419.95 286.85 422.95 284.8 428.05 284.75 428.25 279.8 442.05 277.9 448.55 274.3 458.85 275.2 469.35 275.3 474.75 276.75 478.5 278.3 482.3 281.75 485.55 283.6 488.1 286.2 488.95 292.3 490.6 298.25 488.7 305 486.55 307.05 480.9 309.8 475.6 310.6 468.1 310.95 464.55 311 454.65 311 448.4 310.8 444.85 311 434.8 310.65 430.55 310.75 427.75 310.75 426.95 310.75 424.9 310.4 423.5 310.5 420 310.6 417.9 310.75 414 311.1 412.45 312.2 401.95 318.4 397.65 321.7 396.3 326.6 395.2 328 394.9 334.95 393.6 345.9 390.7 350.25 384.9 353.35 381.05 353 375.45 352.7 369.75 349 366.55 346.15 363.45 340.45 362.55 337.3 362.05 330.65 362.15 Z"/>
</g>

<g id="Tween_12_0_Layer0_0_FILL">
<path fill="#FFFFFF" stroke="none" d="
M 363.95 383.9
Q 363.85 384.05 363.55 384.15 363.3 384.25 363.2 384.45 363.05 384.75 362.9 384.75 362.8 384.75 362.5 385.05 362.2 385.35 362.15 385.35 360.35 387.15 360.2 387.45 360 387.7 359.3 388.3 358.65 388.8 358.4 389.25 357.8 390.25 355.85 392.2 355.65 392.55 354.7 393.7 353.8 394.8 353.7 395 353.35 395.6 351.9 397.5 351.9 397.55 350.9 398.85 350 400.05 349.9 400.5 349.85 400.55 349.45 400.95 349.15 401.2 348.9 401.9
L 348.05 403.2
Q 347.9 403.35 347.8 403.7 347.7 404.05 347.6 404.1 347.5 404.1 347.4 404.55 347.3 404.9 346.9 405.4 346.55 405.85 346.45 406.2 345.8 407.6 344.15 410.7 344.1 410.85 342.55 414.3 341.55 416.5 341.25 418.1 340.05 422.6 339.55 425.65 338.9 429.65 338.9 433.8 338.7 439.9 338.85 442.95 339.1 447.75 340.25 451.75 340.75 453.75 341.4 456.45 342.05 458.6 343.55 461.15 344.35 462.9 345.45 464.45 346.1 465.35 347.75 467.4 348.5 468.8 350.4 470.5 353.05 472.85 353.45 473.3 357.55 477.25 363.35 479.4 365.8 480.65 367.25 480.75 367.35 480.8 367.65 480.7 367.9 480.6 368 480.7 368.1 480.8 368.5 480.85 368.9 480.85 369 480.95 371.65 481.55 372 481.7 372.15 481.8 375.6 481.8 382.1 481.95 387.3 481.05 391.6 480.35 397.95 478.35 398.3 478.3 399.25 477.9 400.1 477.5 400.55 477.45 400.9 477.35 401.45 476.9 402.05 476.4 402.35 476.3 404.05 475.35 404.6 475.05 405.55 474.5 407.1 473 408.65 472 410.25 470.35 411.9 468.6 412.8 466.95 414 465.15 414.7 462.6 415.35 460.35 415.55 458.75 415.8 456.9 415.6 454.6 414.9 451.3 413.2 448.75 411.3 445.85 408.55 444.55 407.4 443.45 404.65 443.15 401.55 443.05 400.35 442.85 397.7 442.55 394.85 443.25 393.75 443.45 391.65 444.05 389.75 445.05 388.5 445.45 388.5 445.55 387 445.95 385.45 446.3 385.3 446.5 384.95 446.65 384.45 446.95 383.9 447.3 383.45 447.5 379.4 449.15 377.8 449.6 374.6 450.6 371.85 450.5 368.7 450 366.7 449.2 364.1 448.15 362.45 446.25 361 444.65 360.95 441.65 360.85 438.55 362.25 436.75 363.95 433.65 365.9 432.6 367.8 431.6 371.6 431.7 375.25 431.5 379.65 431.85 382.2 432.05 387.25 432.55 390.45 432.8 390.9 432.85 393.35 432.9 394.35 432.5 398.45 432.5 401.55 431.85 407.05 430.75 410.75 426.85 414.85 422.55 414.2 417.15 414.15 415.15 413.4 413.55 412.9 412.5 411.4 410.55 411.1 410.25 410.8 409.8 410.6 409.5 410.2 409.3 408.8 408.25 406.7 407.6 402.3 406.1 396.05 406.6 393.15 406.85 385.45 408.3 384.65 408.25 383.55 408.55 382 408.95 381.6 409 379.25 409.3 377.85 409.4 375.35 409.6 374.5 409.15 373.75 409 372.65 408.4 371.5 407.8 371.1 407.3 370.55 406.6 370.25 404.85 370.15 404.3 370.5 403.4 370.95 402.35 371.1 401.95 372.45 399.5 374.3 398.3 374.9 397.9 375.1 397.7 375.5 397.45 376.05 397.35 377.35 396.75 378.2 396.35 381.6 395 384.65 394.7 387.5 394.2 392.55 394.55 395.35 394.7 400.7 395.1 405 395.4 408.85 394.75 411.65 394.3 416.5 392.9 417.25 392.7 417.95 392.25 418.4 391.95 419.25 391.4 421.3 390.55 423.95 386.65 425.8 384.15 425.6 380.6 425.4 377.2 423.45 374.5 422.35 373.1 420.55 371.6 418.65 370 417.15 369.25 414.55 368.1 411.3 367.45 408.1 366.75 405.15 366.8
L 405.1 366.8
Q 393.1 367.8 383.9 371.7 380.75 372.9 378.35 374.15 377.8 374.25 376.9 374.8 375.8 375.45 375.45 375.6 375.2 375.65 374.7 376 374.15 376.4 373.9 376.45 373.65 376.55 373.2 376.9 372.8 377.25 372.55 377.3 372.5 377.45 372.05 377.7 371.65 377.9 371.45 377.9 370.95 378.3 369.35 379.4 367.1 381 366.75 381.4 365.15 382.35 363.95 383.9 Z"/>
</g>

<g id="Tween_9_0_Layer0_0_FILL">
<path fill="#FFFFFF" stroke="none" d="
M 439 394.2
Q 439.3 394.65 440.35 395.95 441.45 397.3 441.75 397.75 442.55 399 444.45 401.1 446.65 403.5 447.25 404.3 449.15 406.75 453.7 410.4 458.4 414.2 460.2 416.35 462.1 418.95 462.85 420.7 463.9 423.25 463.55 425.85 463.45 426.3 463.4 427.65 463.35 428.65 463.1 429.1 462.9 429.3 462.6 430.1 462.3 430.9 462.35 430.95 462.3 431.15 461.85 431.6 461.45 432 461.55 432.15 461.55 432.45 460.85 433.2 460.85 433.3 460.35 434 459.85 434.65 459.85 434.8 459.7 435.55 459.3 435.65 458.55 436.35 457.45 438.05 456.25 439.9 455.65 440.5 455.1 440.9 454.25 442.15 453.35 443.5 453 443.85 452.45 444.25 450.85 446.15 450.65 446.25 450.25 446.75 449.85 447.3 449.85 447.5 449.85 447.7 449.2 448.5 448.5 449.3 448.5 449.45 446.8 451.05 445.8 452.4 445.4 452.5 444.3 453.95 444.1 454.2 443.65 454.5 443.35 454.7 442.95 455.3 442.7 455.6 442.15 456 441.7 456.3 441.5 456.7 441.5 456.8 441 457.35 440.5 457.85 440.45 458 440.25 458.5 439.8 459 439.4 459.4 439.35 459.65 439.35 460 439.05 460.05 438.35 460.45 438.35 461.15 438.35 461.4 438.25 461.4 438.15 461.4 437.85 461.8 437.6 462.2 437.55 462.4 436.75 463.7 436.6 464.25 433.35 469.25 433.95 474.55 434.55 480.1 439.2 483.55 439.8 484.05 440.65 484.75 441.35 485.25 442.25 485.65 443.45 486.15 445.5 486.95 448.45 488.05 452.3 488 456.05 487.95 458.65 486.85 459.5 486.6 461.3 485.4 461.45 485.45 462.15 484.85 462.85 484.3 462.95 484.3 463.15 484.4 464.1 483.55 464.2 483.55 464.3 483.35 464.45 483.15 464.65 483.1 464.9 482.95 465.25 482.55 465.55 482.2 465.85 482.05 466.3 481.8 466.85 481.1 467.7 480.05 467.75 479.95 468.6 479.25 469.4 477.9 470.25 476.4 470.65 475.7 472.05 473 472.95 469 473.35 467.15 474.15 461.95 474.95 457.05 475.2 455.85 475.45 455.5 475.8 453.7 476.2 451.7 476.35 451.25 477.75 445.85 478.2 444.85 478.55 444.05 479.6 443.7 480.65 443.35 481.35 443.95 481.95 444.4 482.3 445.25 482.75 446.3 482.95 446.5 483.1 446.8 483.6 448.4 483.85 449.15 484.1 450.15 484.2 450.7 484.45 451.85 484.75 452.45 485 453.65 485.1 454.35 485.35 455.8 486.25 458 487.75 462.35 488.5 463.8 489.65 467.2 489.8 467.6 490.75 469.15 491.5 470.4 491.6 470.95 492.1 471.8 493.05 473.8 494 475.6 494.9 476.45 495.6 477.05 497.1 478.5 498.5 479.7 499.65 480.15 499.95 480.4 500.9 480.6 501.45 480.7 502.35 480.85 503.1 481.2 504.8 481.3 506.2 481.35 507.35 481.2 507.45 481.1 508.5 481.05 509.5 480.95 509.4 480.7 509.5 480.55 509.85 480.55 511.75 480.35 513.9 478.9 516.15 477.6 517 476.25 518 474.4 518.25 472.85 519.05 470.15 518.8 467.15 518.7 466.15 517.85 461.35 516.6 455.3 512.4 448 511.7 446.65 510.55 444.8 509.15 442.75 508.5 441.75 508.05 440.95 507.05 440 506 438.95 505.45 438.15 503.75 436 502.9 435.15 501.7 433.9 500.3 432.4 499.95 432.15 499.8 431.85 499.65 431.6 499.45 431.45 499.15 431.25 499.1 431.05 499.1 430.9 498.8 430.75 498.45 430.55 498.45 430.45 498.5 430.35 497.75 429.45 495.85 425.95 495.55 425.2 494.45 422.55 494.9 420.65 494.95 420.45 494.95 419.85 495 419.6 495.3 419.05 495.9 417.75 496.65 416.8 497.45 415.5 499.55 414.2 502.85 411.35 506.15 409
L 509.85 406.1
Q 512.05 404.3 513.65 403.3 516.3 401.45 518.8 399.05 521.8 396.1 523.4 393.4 527.1 388.2 528.3 382.45 529.25 374.4 526.15 370.85 525.6 369.8 523.9 368.25 522.35 366.8 521.05 366.05 520.4 365.55 518.8 365.05 517.25 364.6 516.45 364.65
L 516.4 364.7
Q 513.05 364.9 512.45 365 510.55 365.3 508.75 366.3 507.7 366.8 506.4 367.75 504.95 368.85 504.15 369.4 503.15 370.15 502.55 370.65 501.4 371.5 501.05 372.05 500.85 372.15 500.45 372.55 500.05 373 499.85 373.1 499.65 373.4 499.3 373.5 499.05 373.5 499.05 373.75 499.1 374.05 498.4 374.65 497.8 375.15 497.3 375.8 496.6 376.7 495.85 377.95 495.05 379.4 494.55 380.15 494.2 380.8 493.3 382.1 492.6 383.2 492.2 384 490 387.5 489 388.95 487.85 390.75 487.25 391.6 486.2 393.15 485.15 393.95 483.5 396.6 481.45 396.9 480.6 397.15 479.9 396.9 479.1 396.45 478.5 396.25 477.6 395.5 477.15 394.75 476.85 394.25 476.4 393.1 476.45 392.95 476.2 392.8 476 392.65 476 392.55 476.05 392.5 475.95 392.15 475.75 391.75 475.35 390.2 475.05 389.25 474.4 388.7 474.4 386.95 473.4 385.4 473.2 385.05 473.05 384.2 472.95 383.35 472.65 382.9 472.45 382.65 472.3 382.1 472.2 381.55 472.1 381.45 471.9 381.3 471.45 380.2 471.05 379.1 470.8 378.85 470.55 378.75 470.65 378.65 470.7 378.3 470.3 377.65 469.7 376.65 469.65 376.6 469.45 376.05 468.25 374.65 467.1 373.35 467.05 373.15 467.05 373 466.75 372.6 466.4 372.2 466.3 372.15 465.25 371.5 464 370.1
L 461.35 368.05
Q 460.85 367.65 459.15 367.05 457.4 366.5 457.1 366.2 451.8 364.2 448.2 364.45 445.15 365.3 443.9 365.85 441.65 366.75 440.1 368.1 434.65 372.35 434.3 381.5 434.5 384.8 435.35 387.35 435.65 388.2 436.45 389.6 437.45 391.25 437.7 391.85 438.55 393.25 439 394.2 Z"/>
</g>

<g id="Tween_6_0_Layer0_0_FILL">
<path fill="#FFFFFF" stroke="none" d="
M 566.05 365.65
Q 564.95 365.8 563.55 366.3 561.95 366.9 561 367.2 560.8 367.2 559.9 368 559 368.8 558.55 368.95 558.3 369 557.9 369.4 557.5 369.9 557.25 370 555.9 371.3 554.55 373.95 552.5 377.9 552.3 378.2 551.35 379.7 550.25 383 549.1 386.4 549.2 387.7 548.75 388.95 548.35 391.6 547.9 394.1 547.8 395.95 547.5 398.7 546.55 402.85 545.35 408.05 545.15 409.3 545.05 409.65 543.55 415.7 542.6 419.35 541.75 421.95 541.4 422.9 540.2 426.6 539.25 429.7 538.4 431.35 537.6 432.65 537.45 433.8 537.3 433.8 537.05 434.35 536.85 434.85 536.9 435 534.6 439.9 534.5 440.15 534 441.1 533.5 442.8 532.8 445.1 532.65 445.55 532 447.05 531.55 449.3 531.3 450.55 530.9 453 530.05 456.05 529.2 460.6 528.75 466.3 529.4 470 530.45 473.95 531.85 476.3 533.65 479.45 536.55 481.15 536.7 481.3 536.95 481.35 537.2 481.35 537.3 481.5 537.95 482.15 539.4 482.4 539.75 482.45 540.75 482.85 541.55 483.15 542.25 483.1 542.6 483.05 543.05 483.15 543.4 483.2 543.7 483.1 543.85 483.05 544.6 483.2 545.3 483.3 545.5 483.1 545.95 483.05 547.2 482.95 548.15 482.85 548.75 482.7 550.5 482.4 552.35 481.35 554.3 480.2 555.05 478.9 556.55 477.65 557.6 475.1 558.1 474.15 558.35 473.55 558.9 472.45 558.8 472.4 558.75 472.3 558.9 472.2 559.05 472.2 559.1 471.85 559.15 471.55 559.25 471.5 559.5 471.4 559.4 471.2 559.4 471.05 559.65 470.55 559.95 470.1 559.9 469.6 559.85 469.3 560.2 468.75 560.55 468.1 560.55 467.85 560.55 467.4 560.75 466.9 560.95 466.45 561 466.25 561 465.65 561.25 465.15 562.05 461.6 562.35 459.65 562.8 453.55 564.4 450.85 565.6 448.95 566.45 448.05 567.85 446.55 569.45 446.1 576.7 443.3 579.85 446.45 582.15 448.75 583.7 456.85 583.85 458.25 584.5 459.95 584.85 460.9 585.45 462.55 587.1 467.3 589.45 470.15 590.55 471.15 591.35 471.45 591.8 471.9 593.65 473.1 595.75 474.45 598.2 474.7 600.1 474.85 604 474.45 607.6 473.35 609.65 472.35 610.75 472.2 612.25 470.95 613.4 469.95 614.3 468.8 614.35 468.6 614.55 468.55 614.75 468.45 614.8 468.35 615.95 466.45 616.15 465.9 616.85 465.05 616.8 464.9 616.6 464.9 616.95 464.55 617.8 462.4 617.8 462.35 618.35 460.8 618.45 457.8 618.45 456.5 618.35 452.05 618.5 448.65 618 445.45 617.65 442.8 616.6 439.15 616.2 437.75 615.55 436.05 615.4 435.95 615.45 435.7 615.55 435.55 615.25 435.25 614.95 434.85 614.95 434.75 614.9 434.35 614.45 433.45 614.05 432.55 614.05 432.4 614.1 432.25 613.8 432 613.5 431.7 613.5 431.6 613.05 429.9 611.8 427.9 610.3 425.7 609.5 424.35 607.5 420.75 605.25 418.4 603 415.55 601.45 414 600.05 412.6 599.55 411.95 598.95 411.15 598.35 410.5 596.85 408.6 596.15 407.6 594.85 405.85 594.25 404.55 593.25 403.55 592.45 401.9 592.05 401.15 591.2 398.9 590.3 397 589.4 394 587.95 389.25 587.9 389.05 587 385.15 586.35 384.3 585.8 383.35 585.5 382.4 584.8 380.7 584.15 379.4 584 378.9 583.3 377.85 582.6 376.85 582.5 376.35 581.6 375.3 580.6 373.4 578.6 371.1 577.45 369.95 575.5 367.95 573.75 367.2 569.7 365.15 566.05 365.65
M 570.7 404.8
L 570.7 404.75
Q 571.1 404.75 572.55 405.45 572.85 405.45 573.3 406.1 573.85 406.95 573.95 407.05 577.3 409.8 577.85 414.55 578.35 419.05 576.2 423.45 576.05 424.15 575.5 424.65 574.5 425.55 574.5 425.6 574.1 426.15 573.85 426.25 573.45 426.4 572.9 426.65 571.7 427.2 571.25 427.3 570.9 427.4 569.75 427.5 568.15 427.15 567.5 427.2 567.35 427.3 566.75 427.1 564.4 426.15 563.2 425.5 561.55 424.7 560.6 422.45 559.7 419.7 559.2 418.4 558.65 414.85 559.55 412.3 560.55 409.6 562.85 407.3 564.25 405.3 566.15 404.85 567.3 404.6 570.7 404.8 Z"/>
</g>

<g id="Tween_3_0_Layer0_0_FILL">
<path fill="#FFFFFF" stroke="none" d="
M 680.1 364.7
Q 673.45 361.4 661.4 361.5 657.3 361.55 652 364 646.1 367.1 643.35 368.45 633.55 374.3 627.85 385.45 622.15 396.55 623 407.85 623.2 412.15 626.55 417.75 627.7 419.7 628.9 420.7 629.2 420.85 629.9 421.8 630.65 422.8 630.95 423.05 631.2 423.2 633.1 424.5 634.4 425.45 635.5 425.65 635.9 425.75 636.3 426 636.8 426.3 637.2 426.45 641 428.3 645.2 428.35 647.85 428.7 651.55 428.5 653.05 428.4 657.85 428 659.7 428 662.5 427.75 664.9 427.65 667.1 428.35 670 429.35 671.1 430.05 673.05 431.25 673.7 433.3 673.75 433.5 674.65 435.45 675.2 436.7 674.95 436.95 674.85 438.4 674.7 439.1 674.55 439.9 674 440.9 673.7 442.15 672.45 442.9 670.95 443.55 670.25 444 667.7 444.6 664.65 444.35 661.75 444.15 659.5 443.25 657.3 442.9 654.15 441.5 649.95 439.65 648.8 439.25 644.1 436.55 640 436.55 636.45 436.7 633.35 438.5 630.25 440.3 628.3 443.2 626 447.2 625.5 451.65 625 456.3 626.55 460.3 626.95 461.05 627.85 462.4 628.75 463.75 629.1 464.45 631.2 467.2 631.85 467.75 632.15 467.85 632.35 468.3 632.55 468.65 632.9 468.8 634.4 469.85 636.95 471.65 639.2 473.1 641.3 474 642.5 474.6 644.45 475.65 646.2 476.45 647.85 476.75 649.8 477.2 652.7 477.7 654.3 478 657.6 478.55 665.7 478.7 672.6 476.95 674.1 476.6 676.05 475.75 677.15 475.25 679.3 474.25 683.8 472.25 686.55 470.05 688.25 468.75 690.9 465.95 693.85 462.8 695 460.8 698.05 455.75 699.15 451.15 701.8 443.65 701.15 435.2 700.45 426.75 696.55 419.75 696.5 419.35 695.75 418.55 694.9 417.65 694.8 417.35 694.75 417.25 694.15 416.85 693.5 416.4 693.35 416 690.8 413.5 687.45 411.65 686 410.6 683.45 409.9 680.55 409.25 679.15 408.85 675.35 408.1 666.35 409.9 664.6 409.9 664.2 410 663.65 410.25 662.8 410.5 658.85 411.15 654.6 410.5 650.85 410.05 648.95 408.35 647.25 407.05 646.5 405.2 645.7 403.2 646.25 401.2 646.2 400.8 646.15 400.65 646.1 400.4 646.5 400.05 646.7 399.9 646.75 399.65 646.85 399.4 647 399.3 647.15 399.3 647.15 398.95 647.2 398.6 647.3 398.6 647.45 398.6 647.45 398.4 647.45 398.15 647.6 398.05 647.75 398 647.8 397.75 647.9 397.45 648 397.35 648.15 397.05 648.65 396.6 649.15 396.1 649.3 395.8 649.3 395.7 649.85 395.4 650.4 395.15 650.4 395 650.8 394.5 651.5 394.15 651.95 393.95 652.85 393.55 657.1 391.6 662.45 393.3 664.35 394.05 667.55 395.8 671.1 397.75 672.55 398.4 673.85 399.2 676.15 399.7 678.25 400.15 680 400.15 680.75 400.35 683.5 400.25 686.5 400.15 687.45 399.7 687.9 399.75 688.75 399.2 689.75 398.5 689.95 398.45 690.2 398.3 690.75 398.2 691.15 398.1 691.45 397.8 694.7 395.1 696 391.7 697.25 388.65 697.5 385.2 697.8 381.55 696.9 378.6 696.95 378.25 696.5 377.85 696.05 377.45 696.05 377 694.1 373.7 692.65 372.25 687.55 367.15 680.1 364.7 Z"/>
</g>

<g id="discover_0_Layer0_0_MEMBER_0_FILL">
<path fill="#D6D2C4" stroke="none" d="
M 459.9 311.95
Q 459.75 310.8 456.2 311.05 452.05 311.85 450.3 311.8 449.5 311.9 448.15 312.3 446.65 312.75 446 312.9 440.4 314.85 436 320.55 432.95 324.05 431.9 328.7 430.9 333.25 431.95 338.15 432.2 338.55 432.4 339.35 432.6 340.2 432.8 340.6 434.45 343.95 434.9 345.3 437.1 348.35 440.35 350.05 443.75 351.8 447.25 351.45 448.1 351.7 448.9 351.6 449.35 351.55 450.15 351.4 450.7 351.5 451.5 351.45 452.25 351.4 452.5 351.25 455.3 350.95 455.6 350.9 456.9 350.65 458.3 349.95 459.75 349.5 459.55 348.15 459 346.45 458.85 345.45 458.8 344.7 458.5 343.6 458.1 342.05 458.05 341.85 457.95 341.05 457.85 340.7 457.7 340 457.35 339.65 453.3 341.6 449.45 341.1 444.85 340.45 443.85 336.2 443.65 336.1 443.8 335.75 444.05 335.45 443.95 334.7 443.85 333.85 443.95 333.6 444.15 333.4 444.3 332.5 444.45 331.6 444.6 331.4 444.65 330.95 445.25 330 445.95 329 445.95 328.95 446.05 328.7 446.25 328.55 446.4 328.4 446.55 328.1 446.65 327.75 446.9 327.65 447.25 327.55 447.35 327.45 448.05 327.05 448.9 326.2 450.3 325.45 452.5 324.85 453.75 324.5 456.3 323.9 456.8 323.7 457.9 323.8 458.8 323.75 458.75 322.7 459.25 318.1 459.35 316.25 460 312.75 459.9 311.95 Z"/>
</g>

<g id="discover_0_Layer0_0_MEMBER_1_FILL">
<path fill="#D6D2C4" stroke="none" d="
M 560.1 311.8
L 560.05 311.8
Q 558.95 311.9 558.55 312 557.9 312.15 558.05 313.25
L 557.9 322.3
Q 557.65 334.55 557 348.5 556.85 349.7 557.8 349.95 558.35 350.05 559.65 350 564.55 349.8 566.75 350.15 567.75 350.1 567.9 349.75 567.9 349.7 568 347.8 568 346.65 568.2 344.2 568.45 341.85 568.4 341 568.15 338.6 569.95 339.3 570.35 339.5 571.2 339.75 572 340.05 572.35 340.45 573.85 341.75 574.3 344.45 574.55 346.05 574.65 349.6 574.5 349.85 576.2 349.85 577.75 349.85 578 349.75 578.6 349.8 581.25 349.85 583.55 349.85 583.75 349.95 584.05 350.2 584.55 350.1 585 349.95 585.3 349.65 585.25 346.4 585.2 345.05 585.05 342.8 584.55 341.7 584.2 341.35 584.25 341.2 584.3 340.75 583.9 340.05 583.5 339.25 583.35 338.95 583.3 338.7 581.75 337.1 580.35 335.75 580.95 335.25 581.55 334.95 582.25 334.1 582.6 333.65 583.3 332.7 584.5 331 585 329.35 585.45 327.8 585.55 325.45 585.45 322.1 584.2 319.45 582.8 316.5 580.25 315.05 576.9 312.6 572.85 312.55 567.35 311.9 560.1 311.8
M 568.55 326.25
Q 568.5 323.05 568.5 322.1 568.25 321.2 569.75 321.55 573.25 321.3 574.5 324.05 575.65 326.65 574.1 329.55 573 330.2 572.2 330.35 571.85 330.6 570.05 330.6 568.3 330.6 568.35 330.4 568.55 329.2 568.55 326.25 Z"/>
</g>

<g id="discover_0_Layer0_0_MEMBER_2_FILL">
<path fill="#D6D2C4" stroke="none" d="
M 479.9 312
Q 469.55 313.5 466.05 320.6 465.65 321.8 464.35 325.05 464.3 325.5 463.55 327.95 462.6 334.4 464.5 339.4 464.85 341.5 467.15 343.6 467.25 344.1 469.5 345.9 472.4 347.75 475.95 348.3 479.45 348.9 482.85 348.1 485.95 347.8 490.4 344.25 491.25 343.75 491.8 342.85 492.15 342.3 492.75 341.2 493.8 340 494.3 337.95 494.6 336.85 494.85 334.35 495.5 329.95 494.35 323.85 494.25 323.1 494.05 322.65 493.8 322.15 493.75 321.9 493.75 320.2 493.05 319.65 489.45 314.75 486.1 313.35 484.1 312.65 483.05 312.3 481.15 311.75 479.9 312
M 484.2 328.45
Q 484.2 328.6 484.55 331.1 484.8 332.8 484.6 333.75 484.5 334.25 484.1 335.3 484.15 335.6 483.9 335.75 483.7 335.85 483.5 336.15 483.25 336.4 483.25 336.5 482.55 337.9 480.65 338.45 478.85 338.95 477.3 338.4 475 337.8 474.25 335.85 473.8 335.3 473.6 335.05 473.3 334.65 473.25 333.9 472.1 330.1 474.35 327 476.7 323.6 480.85 325 483.5 326.3 484.2 328.45 Z"/>
</g>

<g id="discover_0_Layer0_0_MEMBER_3_FILL">
<path fill="#D6D2C4" stroke="none" d="
M 429.75 314
Q 429.8 312.95 428.5 312.8 426.75 312.45 423.75 312.35 420.95 312.25 418.7 312.45 418.5 312.5 418.35 312.65 418.3 312.75 418.15 312.65 417.65 312.45 416.5 312.75 414.75 313.2 414.7 313.2 412.15 313.5 409 316 406.4 319 406 322.9 405.65 327.1 408.1 330.25 408.6 330.55 409.15 331.2 409.6 331.8 410.1 332 410.25 332 410.75 332.3 411.25 332.6 411.35 332.6 412.2 332.9 413.2 333.45 414.35 334.1 414.45 334.5 415.4 335 415.65 336.2 415.9 337.45 415.3 338.6 414.7 339.75 412.6 339.8 411.15 339.8 409.4 339.3 408.45 339 407.85 338.85 406.8 338.55 406.55 338.95 406.45 339.1 406.3 341.65 406.1 344.35 405.95 345.05 405.95 345.25 405.75 346.65 405.55 347.6 405.8 348.15 406.05 348.4 407.35 348.6 408.9 348.85 409.15 348.95 410.95 349.45 413.35 349.8 414.7 349.7 417.45 349.6 419.85 349.4 421.3 348.75 422.7 348.6 424.1 347.2 425.85 346.3 426.9 343.25 427.2 342.75 427.25 341.7 427.35 340.2 427.35 340.15 427.9 338.6 427.55 337.25 427.35 337 427.45 336.5 427.55 336 427.45 335.8 426.95 334.15 426 332.8 424.8 331.15 423.4 330.75 422.95 330.5 421.25 330 419.85 329.6 419.2 329.1 417.6 327.55 418.2 325.55 418.7 323.75 420.55 322.65 421.05 321.85 423.85 321.9 425.35 321.9 427.5 321.95 428.05 320.85 428.5 318.95 429 316.8 429.2 315.9 429.75 314.05 429.75 314 Z"/>
</g>

<g id="discover_0_Layer0_0_MEMBER_4_FILL">
<path fill="#D6D2C4" stroke="none" d="
M 68.55 -19.2
L 68.55 -19.15
Q 62.25 -19.25 61.55 -18.5 61.2 -18.15 61.65 -9.4 61.65 -6.2 62.05 -2.6 61.6 5.65 61.95 11.4 61.95 12.35 61.85 14.6 61.8 16.6 62.05 17.75 62.85 17.95 66.15 17.85 67.95 17.85 70.65 17.75 71.05 17.6 72.05 17.75 73.1 17.9 73.45 17.85 73.65 17.75 74.7 17.7 75.7 17.65 76.2 17.7 77.45 17.85 79.85 17.55 80.4 17.85 81.2 17.4 82 16.95 81.75 16.3 81.5 16.35 81.8 13.5 82.1 10.45 81.55 10 78.9 9.85 71.1 9.85 71.15 9.7 71.1 6.9 71.05 4.7 71.8 4.65 72.7 4.45 75.55 4.35 78 4.25 79.15 3.8 79.75 3.65 79.85 3.5 79.95 3.3 79.95 2.4 80.05 1.35 79.95 -0.8 79.9 -2.65 79.8 -3.4 78.75 -3.6 77.05 -3.4 74.9 -3.1 74.55 -3.1 72.55 -3.2 71.9 -2.8 71.75 -2.7 71.5 -2.8 71.25 -2.9 71.15 -3.1 70.9 -4.9 70.9 -7.4 73.85 -7.65 79.85 -8.05 81.95 -8.2 82.15 -8.35 82.55 -8.6 82.25 -10.35 82.15 -17.1 82.4 -17.05 82.45 -18.45 81.9 -18.95 77.7 -19.1 68.55 -19.2 Z"/>
</g>

<g id="discover_0_Layer0_0_MEMBER_5_FILL">
<path fill="#D6D2C4" stroke="none" d="
M -103.3 -18.95
Q -108.4 -18.95 -110.55 -19 -112.2 -18.95 -112.7 -18.7 -113.05 -18.5 -113.25 -18.7 -113.55 -18.9 -114.15 -18.8 -115 -18.8 -115.35 -18.75 -115.9 -18.65 -115.95 -17.95 -115.95 -11.95 -115.7 -11.55 -115.4 -10.5 -115.45 -7.4 -115.55 -4.1 -115.4 -3.25 -115.05 -1.25 -115.05 1.1 -115.05 4.8 -115 5.8 -114.85 7.8 -115 13.1 -115.1 17.9 -114.85 20.05 -115 21.05 -114.2 21.15 -113.65 21.2 -111.65 21.2 -109.05 21.25 -108.6 21.2 -108.2 21.2 -108.1 21.05 -107.8 21 -103.35 20.65 -100.7 20.45 -98.95 19.7 -98.9 19.7 -97.35 19.35 -96.4 19.15 -95.9 18.8 -93.75 17.9 -92.75 17.35 -91.05 16.4 -89.95 15.2 -89.1 14.35 -88.45 12.55 -87.9 11.95 -87.4 10.3 -87 8.85 -86.9 7.7 -86.4 6.15 -86.35 3.2 -86.25 -0.75 -86.2 -1.35 -86.15 -2.8 -86.5 -4.8 -86.55 -5.05 -87.25 -8.3 -87.75 -11.05 -90.9 -14.3 -90.9 -14.5 -91.3 -14.85 -91.7 -15.25 -91.9 -15.25 -92.2 -15.6 -92.45 -15.75 -92.85 -16.05 -93.45 -16.15 -93.8 -16.25 -94.8 -16.85 -95.7 -17.4 -96.35 -17.5 -98.8 -18.7 -103.3 -18.95
M -103.9 -7.7
Q -103.4 -7.8 -103.3 -7.65 -98.75 -6.9 -97.45 -2.25 -96.3 2 -98.4 6.2 -98.5 6.7 -99.9 7.95 -101.4 9.2 -101.9 9.05 -102.9 9.3 -103.4 9.4 -104.35 9.6 -104.3 8.7 -104.5 5.35 -104.55 0.6 -104.6 -4.8 -104.65 -7.7 -104.4 -7.55 -103.9 -7.7 Z"/>
</g>

<g id="discover_0_Layer0_0_MEMBER_6_FILL">
<path fill="#D6D2C4" stroke="none" d="
M 515.85 313.3
L 515.9 313.35
Q 515.25 313.45 514.8 316.05 514.6 317.45 514.25 319.6 513.8 322.25 512.4 328.65 512 329.7 511.45 333.05 510.95 334.95 510.3 330.85 510.1 330.35 509.9 329.25 509.7 328.1 509.6 327.65 509.65 327.45 509.5 327.15 509.25 326.75 509.2 326.45 509 325.9 509.05 325.55 509.15 325.15 509.05 324.8 507.9 318.7 507.2 315.7 506.8 314.4 506.8 314.35 506.5 313.9 505.45 313.95 503 313.55 499.7 313.7 499.55 313.6 499 313.75 498.45 313.9 498.3 313.85 498.1 313.7 497.1 313.8 496 313.9 495.85 313.85 494.65 313.5 495.3 315.35 495.6 316.3 496.25 317.75 496.7 318.85 497.2 320.5 497.75 322.5 498.1 323.4 498.25 323.8 499.35 326.65 500.1 328.6 500.3 329.85 500.65 330.65 501.2 333 501.7 334.95 502.35 336 502.55 337.65 503.25 339.9 503.6 341.15 504.4 343.65 504.8 345.35 505.75 348.25 505.5 348.65 508.1 348.75 510.6 348.85 510.85 348.7 511.2 348.5 512.45 348.65 513.65 348.75 513.8 348.6 513.95 348.5 514.8 348.55 515.6 348.65 515.8 348.5 516.2 348.5 517.45 348.6 518.6 348.6 518.95 348.15 519.25 348.1 519.35 347.35 519.4 346.5 519.45 346.3 519.65 345.8 519.65 344.95 519.65 344.1 519.95 343.4 520.95 338.95 522.05 330.3 522.5 327.4 523.5 322.55 524.8 316.45 525.1 314.75 525.5 313.5 523.95 313.4 522.15 313.6 521.7 313.55 519.95 313.15 515.85 313.3 Z"/>
</g>

<g id="discover_0_Layer0_0_MEMBER_7_FILL">
<path fill="#D6D2C4" stroke="none" d="
M 397.55 314.7
Q 397.25 314.2 393.15 314.15 390 314.25 389.15 314.35 387.9 314.4 387.7 315 387.3 315.9 387.7 323.4 387.75 326 387.75 332.65 387.7 338.9 387.8 341.7 387.65 343.5 387.55 348.2 387.85 348.5 387.65 351.15 387.95 353.45 390.6 352.45 392.05 352.1 397.75 351.9 398.3 351.95 398.45 351.9 398.55 351.85 398.7 351.55 398.85 351.2 398.75 350.2 398.65 349.2 398.7 348.85 398.9 348.25 398.55 346.5 398.8 345.65 398.6 345.45 398.5 345.15 398.6 344.95 398.75 344.6 398.55 343.55 398.3 342.4 398.35 342.15 398.65 341.45 398.35 341.05 398.45 339.75 398.35 338.85 398.3 326.4 397.85 319.1 397.95 315.3 397.55 314.7 Z"/>
</g>

<g id="tower_0_Layer0_0_MEMBER_0_FILL">
<path fill="#FFFFFF" stroke="none" d="
M -33.55 104.4
Q -36.2 103.95 -40.2 104.3 -43.05 104.45 -47.3 104.3 -52.65 104.15 -55 104.15 -58.1 104.1 -59.5 104.25 -60.85 104.5 -62.05 104.6 -62.55 104.45 -65.45 104.5 -68.2 104.55 -68.6 104.65 -70.95 104 -72.75 103.9
L -72.8 103.85
Q -73.9 104.4 -73.95 105.8 -74 106.8 -73.9 110.55 -73.95 111.45 -74 113.6 -74.1 116.15 -73.95 116.2 -73.75 125.9 -73.3 128.7 -73.3 131.85 -73.6 136.35 -73.75 138.95 -74.1 143.85 -74.4 146.25 -73.2 146.45 -72.4 146.55 -69.25 146.4 -64.15 146.25 -61.9 146.3 -60.4 146.35 -56.05 146.45 -54.4 147 -54.45 145.05 -54.85 142.75 -54.65 142.15 -54.6 141.15 -54.6 136.85 -54.65 133.65 -54.3 131.8 -53.5 128.9 -51 126.8 -47.8 123.85 -43.9 122.45 -40 121.45 -35.8 122.25 -31.2 123.1 -28.6 125.75 -27.8 126.65 -27.65 127.65 -27.45 128 -26.75 129.1 -26.15 130.15 -26.2 130.45 -25.7 132.15 -25.25 135.1 -24.65 138.75 -24.35 140.05 -24.35 140.65 -24.4 141.25 -24.35 141.85 -24 143.6 -23.9 144.05 -23.8 144.8 -23.6 145.35 -22.85 145.3 -21.4 145.4 -18.85 145.25 -15.7 145.1 -14.6 145.1 -10.75 144.95 -7.35 145.15 -6.7 145.1 -5.3 145.15 -4.25 145.1 -4.2 144.85 -3.9 144.3 -4.1 143.45 -4.4 142.5 -4.25 141.95 -4.35 137.6 -4.25 135.5 -4.15 131.95 -3.2 129.4 -2.95 129 -2.5 127.8 -2.35 127.7 -2.35 127.35 -2.35 127 -2.15 126.8 -0.95 124.7 0.85 123.75 3.25 121.95 6.55 122.25 9.5 122.55 12.05 124.45 12.45 125 13.05 125.45 13.6 125.8 13.8 126.2 15.45 129.4 15.75 130.3 16.35 131.95 16.65 134.7 17.1 139 17.1 139.15 17.3 139.3 17.25 142.85 17.25 146.2 17.55 145.95 19.75 146.3 23.9 146.15 28.5 146 30.4 146.15 30.75 146.15 31.8 146.15 32.35 146.15 32.9 146.05 34.95 146.25 35.85 146.1 37.55 145.8 37.15 144.3 37.35 140.5 37.35 135.65 37.35 135.55 37.2 135.1 37.05 134.75 37.35 134.65 37.5 134.45 37.35 133.6 37.2 132.8 37.45 132.4 37.8 129.1 39.7 127.05 41.85 124.15 44 123.15 46.5 122 50.15 122.75 51.75 123.1 52.05 123.2 53.05 123.45 53.75 123.95 54.2 124.6 54.85 124.8 55.2 124.8 55.75 125.95 56.3 127.05 56.55 126.95 56.7 126.95 56.8 127.15 57.25 127.6 57.55 128.75 57.95 130.4 58.05 130.6 59.1 135.15 59.5 137.6 59.6 138.1 59.7 139.55 59.75 140.85 59.95 141.5 60.15 142 60.1 144.7 60.1 145.65 60.75 145.5 65.35 145.1 76.25 145.3 76.55 145.25 79.4 145.35 80.85 145.4 81.7 144.5 81.25 137.35 81.65 131.15 81.7 127.75 81.25 122.85 80.8 117.5 80.75 114.7 80.75 113.95 80.55 111.95 80.35 110.2 80.45 109.1 80.55 108.7 80.35 108.45 80.15 108.15 80.15 107.8 80.2 106.5 79 106.25 78.8 106.25 76.7 106.3 66.7 106.05 45.3 105.95 23.9 105.85 13.9 105.55 6.15 105.3 -6 105.15 -19.55 105.05 -26.25 104.95 -26.85 104.95 -27.5 105 -27.95 105.1 -28.15 105 -27.95 104.9 -30.35 104.8 -33.1 104.65 -33.55 104.4
M -7.15 -15.3
L -7.15 -15.35
Q -7.25 -15.3 -8.65 -15.3 -9.9 -15.3 -9.95 -15.1 -9.95 -14.9 -9.75 -12.3 -9.6 -10.65 -9.75 -9.5 -10.1 -7.95 -9.95 -5.65 -9.8 -2.9 -9.9 -1.8 -10.1 -0.75 -9.9 2.15 -9.75 5.2 -9.85 6.1 -9.8 6.65 -9.4 8.1 -9.1 9.3 -9.15 10.25 -9.25 13.1 -9.05 19.4 -8.6 22.2 -8.7 26 -8.75 29.7 -9.25 32.8 -9.5 34.35 -9.15 37.75 -8.75 41.9 -8.75 43 -8.7 43.75 -8.85 48.95 -8.9 52.95 -8.65 54 -9 55.15 -9.1 57.85 -9.3 61.7 -9.3 61.8 -9.2 62.75 -9.3 65.15 -9.15 67.05 -7.35 66.7 -6.85 66.6 -4.25 66.75 -2 66.75 -2.4 65.45 -2.7 55.1 -2.7 54.4 -2.65 53.75 -2.85 52.1 -3.05 50.55 -2.9 49.7 -2.75 48.5 -2.75 43.65 -2.75 38.75 -2.5 36.45 -2.2 35.25 -2.7 31.25 -2.6 28.5 -2.65 27.95 -2.95 25.1 -2.9 20.3 -2.9 14.1 -2.95 12.35 -3.15 10.45 -3.2 9.4 -3.15 7.8 -3.15 5.95 -3.1 4.3 -3.3 1.6 -3.5 -0.8 -3.35 -2.25 -3.2 -3.75 -3.5 -6.6 -3.9 -10.05 -3.9 -10.85 -3.7 -12.4 -4.15 -14.5 -4.2 -15.35 -5.35 -15.4 -6.7 -15.3 -7.15 -15.3
M -39.45 -16.4
Q -39.95 -15.6 -40 -15.45 -40.05 -15.2 -39.95 -13.65 -39.95 -13.5 -40.05 -9.75 -40.15 -7.2 -40 -5.85 -40.3 3.95 -39.55 13.7 -39.95 18.5 -39.65 25.85 -39.25 36.05 -39.25 38.15 -39.4 46.25 -39.2 54.3 -39.55 56.6 -39.65 60.5 -39.65 62.75 -39.65 67.25 -39.05 67.2 -37.55 67.25 -36.35 67.25 -35.7 67.15 -33.3 67.75 -30.6 67.7 -26.7 67.7 -17.5 67.35 -16.9 67.25 -16.05 67.4 -15.45 67.3 -15.5 65.7 -15.3 60.85 -15.35 57 -15.45 52.3 -15.4 50.9 -14.85 44.8 -15.35 43.55 -15.5 42.35 -15.55 41.9 -15.6 41.35 -15.5 40.15 -15.2 36.85 -15.25 33 -15.25 32.9 -15.45 26.15 -15.4 24.6 -15.4 23.75 -15.4 22.2 -15.6 21.3 -15.6 14.05 -15.9 12.45 -16 11.05 -15.75 8.3 -15.45 5.1 -15.45 4 -15.65 1.65 -15.5 -5.55 -15.35 -12.5 -15.65 -15.45 -31.15 -16.45 -39.45 -16.4
M 23.65 -16.1
Q 23.4 -13.5 23.65 -9 23.8 -6.5 24.15 -1.6 24.2 0.65 24.6 5.7 24.95 10.35 24.95 13.6 25 20.45 24.4 29.5 24.2 29.8 24.7 31.7 25 32.25 24.75 35.55 24.75 36.5 25 43.55 25.15 48.85 24.95 51.35 24.8 52.45 24.85 56.35 24.9 60.4 25.15 62 25.3 62.35 25.05 62.8 24.85 63.1 24.95 63.55 25.05 64.05 25 64.25 24.9 64.45 24.85 65.65 24.85 66.95 25.15 66.9 28.85 67.15 35.15 66.9 42.35 66.65 44.8 66.7 45.9 66.95 45.85 64.4 45.75 61.15 45.85 60.95 46.05 60.5 46.05 54.65 46.05 54.55 45.9 53.05 45.8 52.1 46.05 50.8 46.4 32.2 45.3 17 45.1 11.7 45.4 9.55 45 7.35 45.05 5.6 45.85 -7.9 45.05 -15.35 44.95 -15.75 44.85 -15.85 44.7 -16.05 44.05 -15.95 43.85 -15.95 42.8 -15.75 42.05 -15.65 41.75 -15.9 41.55 -16.1 41 -16 40.1 -15.9 39.4 -15.9 38.15 -15.95 37.2 -15.95 36.95 -15.95 33.45 -15.85 31.55 -15.85 29.75 -16.1 29.1 -16 26.85 -16.05 24.2 -16.1 23.65 -16.1
M 4.15 -15.05
L 4.2 -15.1
Q 3.2 -15.15 2.55 -15.1 1.35 -15.05 1.65 -14.45 1.8 -14.25 1.6 -14.05 1.55 -10.6 2.35 -3 2.45 1.45 2.2 12.8 2 23.15 2.2 28.75 2.6 34.35 2.5 46.15 2.15 49.8 2.1 49.95 2.05 51.05 2.3 53.3 2.5 54.8 2.3 58.2 2.1 61.05 2.6 62.8 2.7 63.15 2.55 63.75 2.45 64.25 2.65 64.55 2.7 64.8 2.6 65.75 2.55 66.65 2.8 67 3.35 67.15 4.75 67 6.35 66.85 7.05 66.9 7.8 66.9 8.05 66.75 8.3 66.6 8.35 65.95 8.55 63.35 8.35 59.6 8.7 53.7 8.15 49.95 8.05 35.5 7.85 29.2 8.65 16 8.05 2.6 8 1.45 8.15 -5 8.25 -9.7 7.75 -12.4 7.95 -15.85 4.15 -15.05
M 12.8 -15.2
Q 11.3 -15 11.55 -13.1 11.55 -13 11.8 -6.95 11.9 -3.2 12.3 -0.85 12.35 -0.45 12.05 0.3 11.75 1.1 11.75 1.35 11.65 1.65 11.7 3.7 11.75 5.7 11.6 6.2 11.45 6.05 11.5 7.95 11.55 9.8 11.6 9.8 11.25 11.05 11.45 13.4 11.75 16.6 11.75 17.15 11.75 18.25 11.5 24.85 11.3 29.6 11.55 32.75 11.75 33.2 11.8 33.4 11.8 33.45 11.7 34.05 12.05 36.85 11.95 38.05 12.75 50.15 12.25 57.25 12 58.25 12.05 59.65 12.05 61.6 12 62.3 12.15 63.2 11.95 65.2 12.05 66.8 13.4 66.75 16.1 66.55 17.75 66.45 18.1 66.25 18.25 62.35 18.5 57.85 18.3 50.75 18 41.3 18 39.1 18.15 22.95 17.35 8.05 17.5 3.65 17.55 1.45 17.65 -2.4 17.45 -5.2 17.6 -8.9 17.65 -11.1 17.7 -15.15 16.05 -15.5 13.7 -15.3 12.8 -15.2
M 18.45 -33.9
Q 16.8 -34.25 13.35 -34.25 9.35 -34.3 8 -34.45 7.35 -34.55 5.15 -34.2 2.95 -33.85 2.25 -34 0.45 -34.2 -4.1 -34.45 -9.05 -34.7 -10.7 -34.85 -12.3 -35.2 -15.5 -35.1 -18.85 -34.9 -19.85 -34.9 -22.05 -35.3 -23.05 -35.1
L -23.05 -35.15
Q -25.5 -34.75 -29.7 -34.7 -34.8 -34.65 -36.5 -34.5 -41.05 -34.9 -43.8 -34.8 -45.3 -34.8 -45.1 -34.35 -44.25 -28.45 -44.7 -24.55 -44.8 -21.2 -44.25 -20.65 -43.6 -20 -40.25 -20.4 -38.8 -20.4 -35.6 -20.35 -32.8 -20.35 -31.1 -20.55 -25 -19.85 -16.8 -20.15 -12.1 -20.3 -2.8 -20.85 1.2 -21.15 9.1 -21.05 17.6 -20.95 20.8 -21.1 26.05 -21.35 33.45 -21.3 37.7 -21.25 46.95 -21.1 48.7 -20.7 48.9 -22.65 48.9 -22.7 48.7 -25.9 49.1 -32.2 48.35 -34.05 44.2 -34.45 33.4 -34.1 21.75 -33.75 18.45 -33.9
M 24.9 -124.45
Q 25.4 -128.05 26 -129.85 26.4 -131.4 26.3 -131.65 26.05 -132.25 24.2 -132.1 22.85 -132.2 20.65 -132.15 18.35 -132.1 16.8 -132.25 14.55 -132.2 14.6 -132.6 14.85 -134.3 14.45 -135.75 14.65 -135.95 14.8 -137.5 14.95 -139.05 14.8 -139.25 14.7 -139.4 14.8 -139.55 14.95 -139.75 14.9 -139.95 15.05 -140.8 10.65 -140.65 6.2 -140.55 6.2 -140.95 6.2 -141 6.1 -142.7 6 -144.25 6.15 -144.45 6.25 -145 6 -145.25 5.2 -145.5 3.2 -145.65 0.95 -145.75 0.25 -145.9 -1.35 -146.2 -4.75 -146.3 -8.8 -146.4 -9.65 -146.5 -12.4 -146.45 -12.95 -146.15 -12.95 -143.25 -12.8 -142.35 -12.65 -141.45 -13.4 -141.8 -13.6 -141.9 -14 -141.8 -14.35 -141.7 -14.6 -141.85 -16.65 -142.1 -18.95 -142.05 -22.55 -142 -21.8 -140.85 -22.15 -139.05 -22 -136.2 -22.15 -134.35 -22.4 -134.3 -23.55 -134.45 -25.35 -134.3 -27.75 -134.05 -29.85 -134.2 -30.8 -134.3 -31.1 -134.35 -31.5 -134.4 -31.75 -133.65 -31.95 -133.4 -31.75 -132.9 -31.5 -132.35 -31.5 -132.2 -31.7 -131.8 -31.45 -131.35 -31.2 -130.8 -31.25 -130.5 -31.05 -128.85 -29.45 -125.45 -29.2 -125.4 -27.15 -125.3 -25.25 -125.25 -24.9 -125.15 -24.7 -122.25 -24.75 -116.65 -24.85 -110.4 -24.75 -108.15 -23.4 -89.85 -24.3 -75.05 -24.35 -73.45 -24.4 -73.35 -24.5 -73.05 -25.1 -73.95 -25.9 -74.9 -27.55 -76.05 -29.45 -77.3 -30.2 -77.85 -32.35 -79.55 -34.25 -81.25
L -35.4 -81.9
Q -35.75 -82 -38.45 -82 -39.15 -82 -39.45 -81.75 -39.7 -81.5 -39.75 -80.8 -39.2 -69.6 -37.9 -46.55 -37.75 -42 -37.6 -40.15 -37.55 -39.35 -37.35 -39.1 -37.15 -38.85 -36.55 -38.85 -35 -39.05 -33.1 -38.9 -30.85 -38.75 -29.05 -38.85 -27 -38.75 -19.15 -38.75 -11.35 -38.8 -8.05 -38.6 -3.9 -38.5 -3.3 -38.45 -1.1 -38.35 0.95 -38.1 3.5 -38.2 10.15 -38.2 16.1 -38.2 19.05 -38.4 21.1 -38.5 26.65 -38.35 31.75 -38.2 34.2 -38.4
L 36.65 -38.35
Q 38.4 -38.35 38.75 -38.4 39.05 -38.4 39.25 -38.6 39.8 -39.55 39.65 -40.05 39.4 -41.15 39.5 -42.15 39.9 -46.1 39.5 -47.75 39.7 -51.1 39.65 -54.05 39.5 -58.05 39.4 -61.2 39.25 -64.85 38.75 -70.3 38.2 -75.65 38.05 -79.8 37.95 -84.1 37.6 -84.8 37.45 -85 37.2 -85 36.95 -85.05 35.55 -85 33.6 -84.95 33.1 -84.9 32.7 -84.85 32.4 -84.6 31.9 -84 30.9 -82.35 29.85 -80.65 29.4 -80.1 28.65 -79.35 26.9 -77.3 26.2 -76.45 25.25 -74.9 24.05 -73.05 23.65 -72.5 23.45 -72.35 23.35 -72.75 23.2 -73.15 23.25 -73.7 23.3 -74.2 23.15 -74.8 23 -75.4 23 -76.1 22.85 -77.6 22.8 -81.35 22.75 -84.75 22.5 -86.6 22.05 -99.75 21.3 -106.1 21.05 -108.05 20.85 -114.85 20.7 -120.95 20.4 -122.15 20.5 -122.2 20.25 -122.75 20.95 -122.85 23.1 -122.85 24.95 -123.1 24.9 -124.45
M 10.45 -122.5
Q 11.7 -122.55 11.8 -122.4 12.2 -122 12.25 -120.55 12.35 -118.6 12.4 -118.35 12.4 -116.45 12.7 -114.8 12.95 -113.4 12.85 -112.1 12.9 -110.7 13.2 -107.55 13.4 -104.6 13.2 -102.85 12.85 -101.1 13.05 -97.15 13.2 -93.25 12.85 -91.6 12.9 -91.3 7.65 -91.3 7.8 -101.35 7.85 -104.75 7.9 -109.95 7.6 -115.65 7.45 -120.5 7.75 -122.3 7.7 -122.55 8.2 -122.55 8.4 -122.5 8.7 -122.6 8.9 -122.7 9.05 -122.55 9.1 -122.45 10.45 -122.5
M 1.5 -123.2
Q 1.15 -119.55 1.2 -114.15 1.25 -105.8 1.25 -105.25 1.25 -104.85 0.9 -98.35 0.65 -93.6 1 -91.2 0.6 -91.25 -1 -91.15 -2.35 -91.1 -2.75 -91.4 -3 -92 -3 -94.05 -3.3 -94.75 -2.95 -95.1 -2.8 -95.35 -2.9 -97.05 -3.05 -98.8 -3 -99.05
L -2.65 -123.05
Q -2.25 -123.05 -0.85 -123.15 0.25 -123.25 0.95 -123.15
L 1.5 -123.2
M 10.65 -77
Q 11.5 -76.05 11.95 -74.3 12.15 -73.65 12.6 -70.95 13.15 -68.35 12.8 -65.6 12.5 -63.45 11.55 -60.55 9.1 -56.25 3.9 -54.4 2.95 -54.2 -3.4 -53.7 -4.1 -53.45 -4.85 -53.7 -5.95 -54 -6.3 -54 -7.15 -54.05 -7.95 -54.5 -8.8 -55.1 -9.3 -55.4 -11.4 -56.4 -13 -58.3 -14.7 -60.95 -15.1 -63.55 -15.5 -66.1 -14.7 -69.1 -14.65 -69.85 -14.2 -70.65 -13.95 -71.1 -13.4 -71.95 -13.15 -72.75 -11.65 -75.25 -11 -76.3 -10.75 -76.85 -10.75 -76.95 -10.5 -77.05 -10.35 -77.15 -10.3 -77.35 -9.95 -78 -8.3 -79.15 -7.85 -79.25 -7.05 -79.75 -4.6 -81.2 -2.8 -81.7 -0.65 -82.25 2.1 -81.95 5.9 -81.5 10.65 -77
M -9.8 -122.85
Q -9.65 -122.8 -9.65 -122.15
L -9.65 -114.05
Q -10.1 -100.85 -9.9 -93.15 -9.95 -92.2 -9.85 -91.45 -9.9 -91.15 -11.2 -91.3 -12 -91.4 -12.7 -91.3 -13.3 -91.15 -14 -91.3 -15 -91.2 -14.8 -94.7 -14.5 -100.35 -14.5 -100.55 -14.5 -104.1 -14.35 -108.4 -14.2 -113.25 -14.2 -115.75 -14.3 -118.9 -14.25 -122.7 -13.8 -123.1 -12.9 -123.05 -12.4 -123.05 -11.25 -122.95 -9.95 -122.95 -9.8 -122.85 Z"/>
</g>

<g id="tower_0_Layer0_0_MEMBER_1_FILL">
<path fill="#F8971F" stroke="none" d="
M -67.75 74.6
Q -68.4 75.6 -68.55 76.05 -68.6 76.35 -69.1 76.8 -69.55 77.3 -69.65 77.7 -69.9 78.05 -70.2 78.8 -70.5 79.45 -70.65 79.55 -70.85 79.65 -71.25 80.1 -71.65 80.6 -71.65 80.8 -71.95 81.3 -72.65 82.2 -73.25 82.95 -73.5 83.5 -74.35 85.25 -75.05 86.45 -75.65 87.4 -76.25 88.75 -77.1 90.65 -77.3 91 -77.95 91.9 -78.65 93.35 -79 94.15 -79.75 95.75 -79.9 96.2 -80.45 96.9 -80.95 97.55 -81.1 98.3 -82.25 99.85 -80.95 100 -80.15 100.15 -78.15 100.2 -77.05 100.5 -72.6 100.45 -68.6 100.4 -66.45 100.2 -62.8 100.1 -55.1 99.95 -48.15 99.8 -43.8 99.55 -39.4 99.8 -31.8 99.8 -23.05 99.8 -18.7 99.95 -10 99.75 6 99.4 19.5 99.15 30.95 99.45 37.25 100 49.6 100.1 63.95 100.15 68.95 100.4 69.1 100.4 77.9 100.55 82 100.6 81.3 99.3 80.7 98 80.2 96.3 79.6 94.45 79 93 77.45 88.45 75.9 84.45 75.85 84.3 74.45 80.65 74.3 79.55 73.3 77.65 72.7 76.2 71.95 73.7 71.9 72.3 70.55 71.9 69.8 71.7 68.2 71.8
L 68.2 71.85
Q 55 72.6 34.85 72.4 5.75 72.1 1.75 72.15 -3.5 71.7 -11.85 71.95 -22.8 72.25 -25.85 72.2 -43.9 72.2 -46.2 72.2 -58.15 72.3 -67.15 72.8 -67.2 73.75 -67.75 74.6
M 3.95 -77.9
Q 2.75 -78.4 0.25 -78.7 -2.15 -79 -3.2 -78.8
L -3.2 -78.75
Q -6.5 -78.15 -7.95 -76.75 -9.3 -75.5 -10.65 -73.35 -12.1 -71 -12.4 -69.35 -12.4 -65.75 -12.2 -65 -12.15 -64.8 -10.7 -62.2 -10.65 -61.75 -10.2 -61.25 -9.6 -60.6 -9.5 -60.35 -9.35 -59.9 -8.55 -59.1 -7.1 -58.05 -3.35 -56.65 -2.65 -56.25 -1.1 -56.25
L 1.45 -56.2
Q 2.6 -56.15 3 -56.25 3.25 -56.35 3.9 -56.6 6.35 -57.4 7 -58.15 9.95 -61.6 10.3 -65.75 10.65 -67.4 10.5 -69.1 10.35 -71.05 9.55 -72.25 9.5 -73.15 9.3 -73.6 9 -74.2 8.1 -75 7.2 -75.9 6.05 -76.6 4.3 -77.65 3.95 -77.9 Z"/>
</g>
</defs>

<g transform="matrix( 1, 0, 0, 1, 71.9,439.15) ">
<g transform="matrix( 1, 0, 0, 1, -295.5,-425.9) ">
<use xlink:href="#Tween_15_0_Layer0_0_FILL"/>
</g>
</g>

<g transform="matrix( 1, 0, 0, 1, 156.6,437.55) ">
<g transform="matrix( 1, 0, 0, 1, -382.2,-424.3) ">
<use xlink:href="#Tween_12_0_Layer0_0_FILL"/>
</g>
</g>

<g transform="matrix( 1, 0, 0, 1, 251.55,439.45) ">
<g transform="matrix( 1, 0, 0, 1, -481.15,-426.2) ">
<use xlink:href="#Tween_9_0_Layer0_0_FILL"/>
</g>
</g>

<g transform="matrix( 1, 0, 0, 1, 344.1,437.65) ">
<g transform="matrix( 1, 0, 0, 1, -573.7,-424.4) ">
<use xlink:href="#Tween_6_0_Layer0_0_FILL"/>
</g>
</g>

<g transform="matrix( 1, 0, 0, 1, 432.5,433.3) ">
<g transform="matrix( 1, 0, 0, 1, -662.1,-420.05) ">
<use xlink:href="#Tween_3_0_Layer0_0_FILL"/>
</g>
</g>

<g id="discover" transform="matrix( 1, 0, 0, 1, 238.2,344.65) ">
<g transform="matrix( 1, 0, 0, 1, -469.6,-332.15) ">
<use xlink:href="#discover_0_Layer0_0_MEMBER_0_FILL"/>
</g>

<g transform="matrix( 1, 0, 0, 1, -469.6,-332.15) ">
<use xlink:href="#discover_0_Layer0_0_MEMBER_1_FILL"/>
</g>

<g transform="matrix( 1, 0, 0, 1, -469.6,-332.15) ">
<use xlink:href="#discover_0_Layer0_0_MEMBER_2_FILL"/>
</g>

<g transform="matrix( 1, 0, 0, 1, -469.6,-332.15) ">
<use xlink:href="#discover_0_Layer0_0_MEMBER_3_FILL"/>
</g>

<g transform="matrix( 1, 0, 0, 1, 0,0) ">
<use xlink:href="#discover_0_Layer0_0_MEMBER_4_FILL"/>
</g>

<g transform="matrix( 1, 0, 0, 1, 0,0) ">
<use xlink:href="#discover_0_Layer0_0_MEMBER_5_FILL"/>
</g>

<g transform="matrix( 1, 0, 0, 1, -469.6,-332.15) ">
<use xlink:href="#discover_0_Layer0_0_MEMBER_6_FILL"/>
</g>

<g transform="matrix( 1, 0, 0, 1, -469.6,-332.15) ">
<use xlink:href="#discover_0_Layer0_0_MEMBER_7_FILL"/>
</g>
</g>

<g id="tower" transform="matrix( 1, 0, 0, 1, 230.85,159) ">
<g transform="matrix( 1, 0, 0, 1, 0,0) ">
<use xlink:href="#tower_0_Layer0_0_MEMBER_0_FILL"/>
</g>

<g transform="matrix( 1, 0, 0, 1, 0,0) ">
<use xlink:href="#tower_0_Layer0_0_MEMBER_1_FILL"/>
</g>
</g>
</svg>
