<svg id="UT_McCombs_School_of_Business" data-name="UT McCombs School of Business" xmlns="http://www.w3.org/2000/svg" xmlns:xlink="http://www.w3.org/1999/xlink" class="w-full" viewBox="0 0 255.71 32">
  <defs>
    <clipPath id="clip-path">
      <rect id="Rectangle_805" data-name="Rectangle 805" width="255.71" height="32"/>
    </clipPath>
  </defs>
  <rect id="Rectangle_804" data-name="Rectangle 804" width="0.027" height="0.009" transform="translate(12.401 10.68)"/>
  <g id="Group_2375" data-name="Group 2375">
    <g id="Group_2374" data-name="Group 2374" clip-path="url(#clip-path)">
      <path id="Path_846" data-name="Path 846" d="M19.794,9.794a13.048,13.048,0,0,0-1.89-.2,3.472,3.472,0,0,0-.821.088l-.135-3.768V5.288a2.573,2.573,0,0,1,1-.164,12.811,12.811,0,0,1,1.765.182c.561.082,1.137.164,1.729.2l.161,4.5c-.606-.034-1.215-.126-1.808-.218m-6.43,0c-.593.092-1.2.184-1.809.218l.162-4.5c.591-.038,1.167-.119,1.728-.2a12.836,12.836,0,0,1,1.767-.182,2.562,2.562,0,0,1,1,.164v.625l-.135,3.768a3.47,3.47,0,0,0-.822-.088,13.042,13.042,0,0,0-1.889.2m9.572-2.658V6.28h-.528V4.817H22.05A15.531,15.531,0,0,1,19.816,4.6a13.342,13.342,0,0,0-1.869-.19,3.179,3.179,0,0,0-1.368.262,3.176,3.176,0,0,0-1.368-.262,13.359,13.359,0,0,0-1.87.19,15.531,15.531,0,0,1-2.235.217h-.356V6.28h-.529v.856h.529V8.3h-.522v.856h.522V10.74h.356a15.531,15.531,0,0,0,2.366-.241,12.493,12.493,0,0,1,1.78-.194,2.108,2.108,0,0,1,.982.188h.689a2.108,2.108,0,0,1,.981-.188,12.49,12.49,0,0,1,1.781.194,15.523,15.523,0,0,0,2.364.241h.357V9.152h.522V8.3h-.522V7.136Z" transform="translate(-4.165 -1.797)"/>
      <path id="Path_847" data-name="Path 847" d="M14.9,7.014l-.106.015c-.335.049-.676.1-1.02.139l-.02.577c.381-.041.755-.1,1.124-.151l.023,0Z" transform="translate(-5.603 -2.858)"/>
      <path id="Path_848" data-name="Path 848" d="M16.41,6.835v.577a7.812,7.812,0,0,1,1.648-.105l.02-.569a8.166,8.166,0,0,0-1.668.1" transform="translate(-6.686 -2.74)"/>
      <path id="Path_849" data-name="Path 849" d="M14.834,11.423l-.106.015c-.366.054-.738.108-1.115.149l-.021.577c.414-.043.82-.1,1.218-.161l.023,0Z" transform="translate(-5.538 -4.654)"/>
      <path id="Path_850" data-name="Path 850" d="M16.41,11.244v.577a8.4,8.4,0,0,1,1.554-.112l.02-.568a8.616,8.616,0,0,0-1.574.1" transform="translate(-6.686 -4.536)"/>
      <path id="Path_851" data-name="Path 851" d="M15.538,9.114v.578l.066-.011a10.469,10.469,0,0,1,2.052-.175l.02-.567a10.784,10.784,0,0,0-2.137.175" transform="translate(-6.33 -3.638)"/>
      <path id="Path_852" data-name="Path 852" d="M14.349,9.344q-.325.047-.656.086l-.021.576c.229-.024.455-.055.677-.085Z" transform="translate(-5.57 -3.807)"/>
      <path id="Path_853" data-name="Path 853" d="M24.081,6.8a7.333,7.333,0,0,0-1.408-.063l.02.569a6.8,6.8,0,0,1,1.388.071Z" transform="translate(-9.237 -2.74)"/>
      <path id="Path_854" data-name="Path 854" d="M27.157,7.142c-.344-.039-.685-.089-1.021-.138l-.365-.053v.576l.283.041c.369.055.743.109,1.124.151Z" transform="translate(-10.499 -2.832)"/>
      <path id="Path_855" data-name="Path 855" d="M24,8.992a7.221,7.221,0,0,0-1.243-.053l.021.567A6.652,6.652,0,0,1,24,9.566Z" transform="translate(-9.269 -3.638)"/>
      <path id="Path_856" data-name="Path 856" d="M27.124,9.341c-.36-.04-.718-.092-1.068-.145l-.483-.069V9.7l.4.058c.383.057.774.113,1.171.156Z" transform="translate(-10.419 -3.718)"/>
      <path id="Path_857" data-name="Path 857" d="M26.295,12.012c.389.057.786.114,1.191.157l-.02-.577c-.377-.041-.749-.1-1.115-.149l-.055-.008Z" transform="translate(-10.713 -4.659)"/>
      <path id="Path_858" data-name="Path 858" d="M24.455,11.252a8.888,8.888,0,0,0-1.625-.111l.021.568a8.59,8.59,0,0,1,1.6.12Z" transform="translate(-9.301 -4.536)"/>
      <path id="Path_859" data-name="Path 859" d="M16.57,23.764l.743-1.857.743,1.857,2,.133-1.537,1.281.49,1.939-1.693-1.067L15.62,27.118l.492-1.939L14.574,23.9Zm-4.524-.659h0l3.226,2.346L14.03,29.275a.035.035,0,0,0,.01.019.032.032,0,0,0,.02,0l3.253-2.366L20.566,29.3a.026.026,0,0,0,.019,0,.027.027,0,0,0,.008-.034l-1.238-3.809,3.225-2.344v0a.03.03,0,0,0,.021-.036.031.031,0,0,0-.038-.017H18.575l-1.233-3.794h0a.029.029,0,0,0-.028-.03.029.029,0,0,0-.027.03h0l-1.231,3.794H12.063v0a.027.027,0,1,0-.015.052" transform="translate(-4.899 -7.834)"/>
      <path id="Path_860" data-name="Path 860" d="M22.089,28.435A2.137,2.137,0,0,1,21,29.08a2.142,2.142,0,0,1,1.62-1.792,2.139,2.139,0,0,1-.535,1.147m-1.561-2.51a2.158,2.158,0,0,1,.213-1.249,2.153,2.153,0,0,1,.313,2.4,2.15,2.15,0,0,1-.527-1.148m.865-3.266A2.168,2.168,0,0,1,21.53,21.4a2.156,2.156,0,0,1,.456,2.376,2.16,2.16,0,0,1-.594-1.117m2.062.953A2.151,2.151,0,0,1,22.238,25.7a2.142,2.142,0,0,1,1.216-2.089m-3.161,8.111a2.14,2.14,0,0,1-1.2.408,2.141,2.141,0,0,1,1.957-1.419,2.149,2.149,0,0,1-.761,1.012m-1.009-2.777a2.161,2.161,0,0,1,.466-1.177,2.15,2.15,0,0,1-.189,2.411,2.151,2.151,0,0,1-.277-1.234m-1.127,2.908a2.141,2.141,0,0,1-.7,1.054,2.142,2.142,0,0,1,.683-2.319,2.144,2.144,0,0,1,.015,1.265m.653,1.883a2.142,2.142,0,0,1-.955.833,2.111,2.111,0,0,1-.868.185,2.081,2.081,0,0,1-.385-.034,2.145,2.145,0,0,1,2.207-.984m-3.727.169a2.147,2.147,0,0,1,.9-.889,2.156,2.156,0,0,1-1.147,2.129,2.146,2.146,0,0,1,.244-1.24m-4.822.664a2.146,2.146,0,0,1-.953-.833,2.143,2.143,0,0,1,2.207.984,2.128,2.128,0,0,1-1.254-.151m-.3-2.718a2.14,2.14,0,0,1,.016-1.263,2.145,2.145,0,0,1,.682,2.319,2.136,2.136,0,0,1-.7-1.055m2.171,1.164a2.145,2.145,0,0,1,1.147,2.129,2.155,2.155,0,0,1-1.147-2.129M7.825,31.724a2.144,2.144,0,0,1-.761-1.012A2.143,2.143,0,0,1,9.02,32.132a2.14,2.14,0,0,1-1.2-.408m.543-3.955a2.146,2.146,0,0,1,.188,2.411,2.152,2.152,0,0,1-.188-2.411m-2.34.666a2.152,2.152,0,0,1-.535-1.147A2.146,2.146,0,0,1,7.115,29.08a2.139,2.139,0,0,1-1.086-.645M5.88,25.7a2.148,2.148,0,0,1-1.216-2.089A2.142,2.142,0,0,1,5.88,25.7m.114-3.185A2.148,2.148,0,0,1,6.588,21.4a2.152,2.152,0,0,1-.456,2.376,2.136,2.136,0,0,1-.137-1.259m.857,3.31a2.152,2.152,0,0,1,.526-1.15,2.148,2.148,0,0,1-.313,2.4,2.129,2.129,0,0,1-.213-1.247m15.239.541a2.72,2.72,0,0,0,1.873-3.212l-.067-.3-.293.088a2.711,2.711,0,0,0-.916.476,2.725,2.725,0,0,0-1.076-2.7l-.247-.181-.162.26a2.721,2.721,0,0,0,.694,3.647,2.7,2.7,0,0,0-.207.727,2.725,2.725,0,0,0-.825-1.169l-.236-.2-.178.249a2.723,2.723,0,0,0,.483,3.689l.012.009a2.739,2.739,0,0,0-.37.695,2.709,2.709,0,0,0-.566-1.315l-.19-.24-.226.207a2.723,2.723,0,0,0-.29,3.708l.011.014a2.671,2.671,0,0,0-.505.6,2.719,2.719,0,0,0-.281-1.405l-.137-.273-.263.157a2.722,2.722,0,0,0-1.051,3.569l.008.015a2.66,2.66,0,0,0-.619.485,2.716,2.716,0,0,0,.014-1.432l-.078-.3-.289.1a2.717,2.717,0,0,0-1.778,3.21l-.274.187-.274-.187a2.717,2.717,0,0,0-1.778-3.21l-.289-.1-.078.3a2.716,2.716,0,0,0,.014,1.432,2.669,2.669,0,0,0-.619-.485l.007-.015a2.721,2.721,0,0,0-1.05-3.569l-.263-.157-.137.273a2.713,2.713,0,0,0-.281,1.405,2.678,2.678,0,0,0-.506-.6l.011-.014A2.722,2.722,0,0,0,8.525,27.1L8.3,26.9l-.19.24a2.72,2.72,0,0,0-.566,1.315,2.682,2.682,0,0,0-.37-.695l.013-.009a2.724,2.724,0,0,0,.482-3.689L7.49,23.81l-.235.2a2.713,2.713,0,0,0-.825,1.17,2.654,2.654,0,0,0-.207-.728A2.722,2.722,0,0,0,6.916,20.8l-.163-.26-.247.181a2.725,2.725,0,0,0-1.076,2.7,2.719,2.719,0,0,0-.915-.476l-.293-.088-.068.3a2.719,2.719,0,0,0,1.873,3.212l.258.077a2.73,2.73,0,0,0,.159.636,2.689,2.689,0,0,0-1.234-.415l-.3-.025,0,.306A2.72,2.72,0,0,0,7.4,29.7l.268.023a2.6,2.6,0,0,0,.287.588,2.694,2.694,0,0,0-.947-.172,3.075,3.075,0,0,0-.347.021l-.3.04.059.3A2.728,2.728,0,0,0,7.49,32.187a2.719,2.719,0,0,0,1.935.5l.267-.034a2.728,2.728,0,0,0,.4.517,2.717,2.717,0,0,0-1.3.119l-.289.1.12.281a2.728,2.728,0,0,0,1.4,1.426,2.693,2.693,0,0,0,1.1.235,2.746,2.746,0,0,0,.895-.151l.213-.074a15.441,15.441,0,0,0,1.309.981c-.252.166-.53.347-.841.546l.536.334c.3-.2.572-.372.817-.535.245.163.513.339.817.535l.536-.334c-.311-.2-.589-.38-.84-.546A15.614,15.614,0,0,0,15.88,35.1l.214.074a2.736,2.736,0,0,0,.894.151,2.712,2.712,0,0,0,2.5-1.661l.121-.281-.29-.1a2.7,2.7,0,0,0-1.3-.118,2.73,2.73,0,0,0,.4-.519l.268.034a2.717,2.717,0,0,0,.34.021h0a2.694,2.694,0,0,0,1.593-.517A2.728,2.728,0,0,0,21.7,30.5l.059-.3-.3-.04a3.092,3.092,0,0,0-.347-.021,2.7,2.7,0,0,0-.947.172,2.683,2.683,0,0,0,.288-.588l.267-.023a2.72,2.72,0,0,0,2.5-2.754l0-.306-.3.025a2.691,2.691,0,0,0-1.234.415,2.7,2.7,0,0,0,.159-.636Z" transform="translate(-1.665 -8.369)"/>
      <path id="Path_861" data-name="Path 861" d="M20.5,24.033a15.043,15.043,0,0,1-2.049,2.408A22.015,22.015,0,0,1,12.412,30.3a22.007,22.007,0,0,1-6.038-3.855,15.1,15.1,0,0,1-2.049-2.408c-2.811-4.116-3.18-8.89-3.182-12.6h0l11.269-.626,11.266.625c0,3.71-.372,8.484-3.183,12.6M1.743,1.854c2.095-.232,6.8-.7,10.671-.7s8.575.469,10.671.7l.586,8.255H1.157ZM24.824.9l-.5-.063A116.527,116.527,0,0,0,12.418,0h-.007A116.541,116.541,0,0,0,.5.837L0,.9v9.209H0v1.285c0,3.879.385,8.894,3.382,13.283a16.245,16.245,0,0,0,2.161,2.549h0l.017.014A32.616,32.616,0,0,0,12.409,32v0l0,0,0,0v0a32.626,32.626,0,0,0,6.849-4.754l.017-.014h0a16.241,16.241,0,0,0,2.161-2.549c3-4.389,3.382-9.4,3.382-13.283v-.183h0Z"/>
      <path id="Path_862" data-name="Path 862" d="M67.424,25.728l1.973.053,1.653-.053.088.622-1.51.231V37.355l1.422.232-.088.622-2.134-.053-2.578.053-.088-.622,1.6-.232V29.231l.232-2.08L63.5,38.19h-1.1L58.82,29.213l-.657-2.062v10.2l1.564.232-.142.622-1.9-.053-2.008.053-.089-.622,1.422-.232V26.617L55.5,26.351l.089-.622,1.831.053,1.956-.053,3.733,9.4.142,1Z" transform="translate(-22.609 -10.482)"/>
      <path id="Path_863" data-name="Path 863" d="M88.205,33.435a1.517,1.517,0,0,0-1.031-.284c-1.208,0-2.133,1.351-2.133,3.288,0,1.9,1.031,3.325,2.773,3.325a3.882,3.882,0,0,0,2.009-.747l.284.676a9.99,9.99,0,0,1-2.9,1.4c-2.276,0-3.964-1.494-3.964-4.231,0-2.791,2.044-4.124,4.231-4.658a4.24,4.24,0,0,1,2.453.889v1.778H88.614Z" transform="translate(-33.915 -13.122)"/>
      <path id="Path_864" data-name="Path 864" d="M108.558,34.357l-.462,2.559a17.114,17.114,0,0,1-4.319,1.387,6.149,6.149,0,0,1-6.4-6.382c0-4.142,2.755-6.169,6.719-6.7a7.744,7.744,0,0,1,4.249,1.387v2.4h-.978l-.568-1.653a4.054,4.054,0,0,0-2.951-1.209c-2.631,0-4.426,1.867-4.426,5.351,0,2.88,1.759,5.832,4.871,5.832a3.59,3.59,0,0,0,2.328-1l.961-1.973Z" transform="translate(-39.672 -10.274)"/>
      <path id="Path_865" data-name="Path 865" d="M126.082,36.475c0,2.649-1.617,4.178-4.372,4.622a3.965,3.965,0,0,1-3.965-4.249c0-2.667,1.617-4.178,4.373-4.64a3.979,3.979,0,0,1,3.964,4.267m-3.928,3.751c1.422,0,2.15-1.458,2.15-3.378,0-2.258-1.084-3.769-2.631-3.769-1.44,0-2.151,1.458-2.151,3.4,0,2.027,1.049,3.751,2.632,3.751" transform="translate(-47.97 -13.122)"/>
      <path id="Path_866" data-name="Path 866" d="M145.07,40.794l-1.689.053-.089-.622.889-.178V34.964c0-.924-.391-1.333-1.031-1.333a3.57,3.57,0,0,0-1.814.8l-.533.373v5.244l.8.178-.089.622L140,40.794l-1.6.053-.089-.622.8-.178V34.964c0-.924-.391-1.333-1.031-1.333a3.57,3.57,0,0,0-1.813.8l-.533.373v5.244l.889.178-.089.622-1.6-.053-2.044.053-.088-.622,1.244-.178V33.559l-1.244.107-.089-.622,2.133-.551.764-.053.089,1.476,2.453-1.707c1.724,0,2.364.516,2.56,1.742l2.507-1.742c2.276,0,2.649.853,2.649,3.111v4.728l1.333.178-.089.622Z" transform="translate(-54.069 -13.122)"/>
      <path id="Path_867" data-name="Path 867" d="M161.5,38.3a5.367,5.367,0,0,1-3.093-.8V26.529l-1.244.036-.089-.6,2.133-.551.889-.071V31.1l2.24-1.689c1.956,0,3.627,1.529,3.627,4.053,0,3.076-1.813,4.444-4.462,4.836m.836-7.467a2.885,2.885,0,0,0-1.707.729l-.533.427V36.7a2.3,2.3,0,0,0,1.76.712c1.422,0,2.329-1.3,2.329-3.4,0-1.973-.782-3.182-1.849-3.182" transform="translate(-63.993 -10.323)"/>
      <path id="Path_868" data-name="Path 868" d="M178.374,33.47a2.761,2.761,0,0,0-1.351-.391c-.693,0-1.352.373-1.352,1.049,0,.569.444.924,1.244,1.333l1.369.693c1.191.6,1.671,1.279,1.671,2.293,0,1.6-1.3,2.2-3.342,2.649a6.084,6.084,0,0,1-2.7-.8l-.338-2.009h1.138l.6,1.476a2.673,2.673,0,0,0,1.458.444,1.3,1.3,0,0,0,1.422-1.352c0-.693-.373-.995-1.3-1.476l-1.4-.728A2.4,2.4,0,0,1,174,34.59c0-1.244,1.155-1.938,3.218-2.382a4.759,4.759,0,0,1,2.506.8v1.778h-.943Z" transform="translate(-70.715 -13.122)"/>
      <path id="Path_869" data-name="Path 869" d="M195.721,36.205a3.329,3.329,0,0,0,2.507,1.121,2.2,2.2,0,0,0,2.418-2.258A2.554,2.554,0,0,0,198.8,32.7l-2.151-.942c-1.28-.552-2.329-1.369-2.329-2.951,0-1.938,1.778-3.076,4.248-3.591a5.7,5.7,0,0,1,3.253,1.031v2.4h-.889l-.515-1.618a2.639,2.639,0,0,0-2.1-.871c-1.4,0-2.239.764-2.239,1.956,0,.978.693,1.582,1.671,2.009l2.044.888c1.4.6,2.631,1.493,2.613,3.307,0,1.672-1.138,3.289-4.479,3.982a5.54,5.54,0,0,1-3.68-1.209l-.391-2.4H195.1Z" transform="translate(-78.978 -10.274)"/>
      <path id="Path_870" data-name="Path 870" d="M215.223,33.435a1.516,1.516,0,0,0-1.031-.284c-1.208,0-2.133,1.351-2.133,3.288,0,1.9,1.031,3.325,2.773,3.325a3.882,3.882,0,0,0,2.009-.747l.284.676a9.99,9.99,0,0,1-2.9,1.4c-2.276,0-3.964-1.494-3.964-4.231,0-2.791,2.044-4.124,4.231-4.658a4.239,4.239,0,0,1,2.453.889v1.778h-1.316Z" transform="translate(-85.663 -13.122)"/>
      <path id="Path_871" data-name="Path 871" d="M226.065,37.249l.978.178-.089.622L225.265,38l-2.044.053-.088-.622,1.244-.178V26.529l-1.244.036-.089-.6,2.133-.552.889-.071V31.1l2.6-1.689c2.276,0,2.649.854,2.649,3.111v4.729l1.333.178-.089.622L230.51,38l-1.671.053-.089-.622.871-.178V32.165c0-.924-.427-1.333-1.138-1.333a4.289,4.289,0,0,0-1.884.8l-.533.338Z" transform="translate(-90.869 -10.323)"/>
      <path id="Path_872" data-name="Path 872" d="M248.24,36.475c0,2.649-1.618,4.178-4.373,4.622a3.965,3.965,0,0,1-3.965-4.249c0-2.667,1.618-4.178,4.374-4.64a3.98,3.98,0,0,1,3.964,4.267m-3.929,3.751c1.422,0,2.151-1.458,2.151-3.378,0-2.258-1.084-3.769-2.631-3.769-1.439,0-2.152,1.458-2.152,3.4,0,2.027,1.049,3.751,2.632,3.751" transform="translate(-97.738 -13.122)"/>
      <path id="Path_873" data-name="Path 873" d="M264.26,36.475c0,2.649-1.618,4.178-4.373,4.622a3.965,3.965,0,0,1-3.964-4.249c0-2.667,1.618-4.178,4.373-4.64a3.98,3.98,0,0,1,3.964,4.267m-3.929,3.751c1.422,0,2.151-1.458,2.151-3.378,0-2.258-1.084-3.769-2.631-3.769-1.439,0-2.151,1.458-2.151,3.4,0,2.027,1.049,3.751,2.631,3.751" transform="translate(-104.265 -13.122)"/>
      <path id="Path_874" data-name="Path 874" d="M273.115,38l-2.044.053-.089-.622,1.244-.178v-10.7l-1.244.036-.089-.622,2.133-.551.889-.071v11.91l1.333.178-.089.622Z" transform="translate(-110.364 -10.323)"/>
      <path id="Path_875" data-name="Path 875" d="M295.28,36.475c0,2.649-1.618,4.178-4.373,4.622a3.965,3.965,0,0,1-3.964-4.249c0-2.667,1.618-4.178,4.373-4.64a3.98,3.98,0,0,1,3.964,4.267m-3.929,3.751c1.422,0,2.151-1.458,2.151-3.378,0-2.258-1.084-3.769-2.631-3.769-1.439,0-2.151,1.458-2.151,3.4,0,2.027,1.049,3.751,2.631,3.751" transform="translate(-116.902 -13.122)"/>
      <path id="Path_876" data-name="Path 876" d="M305.525,29.9h2.222v.836h-2.222V37.3l2.044.124-.089.676-2.756-.053-2.044.053-.088-.622,1.244-.178V30.739h-1.564v-.3l.533-.622h1.031v-.178a3.446,3.446,0,0,1,.978-2.489l1.493-1.689h2.241v1.423h-2.312l-.338.48a3.345,3.345,0,0,0-.373,2.009Z" transform="translate(-123.148 -10.372)"/>
      <path id="Path_877" data-name="Path 877" d="M323.953,38.154l-2.453.053-.089-.622,1.6-.231V26.582l-1.6-.231.089-.623,2.453.054,3.5-.054c2.329-.017,3.431,1.333,3.431,2.684a3.436,3.436,0,0,1-2.809,3.076c2.329.107,3.556,1.458,3.556,3.057,0,2.4-1.99,3.254-4.8,3.662Zm.924-11.572v4.675h1.476a2.573,2.573,0,0,0,2.613-2.666,2,2,0,0,0-2.222-2.1Zm1.6,10.862c2.435,0,3.2-1.546,3.2-2.827a2.528,2.528,0,0,0-2.809-2.56h-1.991v5.3Z" transform="translate(-130.945 -10.482)"/>
      <path id="Path_878" data-name="Path 878" d="M347.977,38.665A2.9,2.9,0,0,0,348.19,40h.888l.071.623-2.293.444-.5-1.44-2.578,1.618c-2.346,0-2.737-.836-2.737-2.9v-4.64l-1.244.089-.089-.693,2.133-.462.889-.071v5.92c0,.924.392,1.333,1.262,1.333a4.323,4.323,0,0,0,1.938-.889l.356-.231v-5l-1.067.089-.089-.693,1.956-.462.889-.071Z" transform="translate(-138.401 -13.268)"/>
      <path id="Path_879" data-name="Path 879" d="M361.49,33.47a2.766,2.766,0,0,0-1.351-.391c-.693,0-1.352.373-1.352,1.049,0,.569.444.924,1.245,1.333l1.369.693c1.191.6,1.671,1.279,1.671,2.293,0,1.6-1.3,2.2-3.343,2.649a6.089,6.089,0,0,1-2.7-.8l-.338-2.009h1.138l.6,1.476a2.671,2.671,0,0,0,1.458.444,1.3,1.3,0,0,0,1.422-1.352c0-.693-.373-.995-1.3-1.476l-1.4-.728a2.4,2.4,0,0,1-1.493-2.062c0-1.244,1.156-1.938,3.218-2.382a4.757,4.757,0,0,1,2.506.8v1.778H361.9Z" transform="translate(-145.318 -13.122)"/>
      <path id="Path_880" data-name="Path 880" d="M371.543,38.228l-2.044.053-.09-.622,1.244-.178V30.993l-1.244.107-.088-.622,2.133-.551.889-.071v7.626l1.333.178-.089.622ZM370.654,26l1.28-.089.5.089.089,1-.2.853-1.262.107-.479-.107-.107-1Z" transform="translate(-150.464 -10.556)"/>
      <path id="Path_881" data-name="Path 881" d="M379.793,40.794l-2.044.053-.089-.622,1.244-.178V33.559l-1.244.107-.088-.622,2.133-.551.764-.053.088,1.493,2.631-1.724c2.276,0,2.649.764,2.649,2.9v4.942l1.351.178-.088.622-2.044-.053-1.707.053-.088-.622.888-.178V34.964c0-.924-.409-1.333-1.173-1.333a3.6,3.6,0,0,0-1.849.8l-.533.356v5.262l.977.178-.088.622Z" transform="translate(-153.825 -13.122)"/>
      <path id="Path_882" data-name="Path 882" d="M395.9,36.3c0,2.027,1.084,3.467,2.951,3.467a4.6,4.6,0,0,0,2.222-.747l.284.676a10.841,10.841,0,0,1-3.111,1.4,4.03,4.03,0,0,1-4.089-4.32c0-2.631,1.582-4.036,4.018-4.569,2.347,0,3.147,1.476,3.147,3.342V36.3Zm3.573-.888c0-1.369-.267-2.311-1.636-2.311-1.084,0-1.778,1.013-1.92,2.489Z" transform="translate(-160.584 -13.122)"/>
      <path id="Path_883" data-name="Path 883" d="M413.06,33.47a2.766,2.766,0,0,0-1.351-.391c-.693,0-1.352.373-1.352,1.049,0,.569.444.924,1.245,1.333l1.369.693c1.19.6,1.671,1.279,1.671,2.293,0,1.6-1.3,2.2-3.343,2.649a6.089,6.089,0,0,1-2.7-.8l-.338-2.009H409.4l.6,1.476a2.671,2.671,0,0,0,1.458.444,1.3,1.3,0,0,0,1.422-1.352c0-.693-.373-.995-1.3-1.476l-1.4-.728a2.4,2.4,0,0,1-1.493-2.062c0-1.244,1.156-1.938,3.218-2.382a4.757,4.757,0,0,1,2.506.8v1.778h-.942Z" transform="translate(-166.328 -13.122)"/>
      <path id="Path_884" data-name="Path 884" d="M425.541,33.47a2.766,2.766,0,0,0-1.351-.391c-.693,0-1.351.373-1.351,1.049,0,.569.444.924,1.244,1.333l1.369.693c1.191.6,1.671,1.279,1.671,2.293,0,1.6-1.3,2.2-3.343,2.649a6.089,6.089,0,0,1-2.7-.8l-.338-2.009h1.138l.6,1.476a2.671,2.671,0,0,0,1.458.444,1.3,1.3,0,0,0,1.422-1.352c0-.693-.373-.995-1.3-1.476l-1.4-.728a2.4,2.4,0,0,1-1.493-2.062c0-1.244,1.156-1.938,3.218-2.382a4.757,4.757,0,0,1,2.506.8v1.778h-.942Z" transform="translate(-171.413 -13.122)"/>
      <path id="Path_885" data-name="Path 885" d="M64.409,11.249l-1.114.036-.059-.416.58-.118V7.361c0-.616-.284-.889-.759-.889a2.862,2.862,0,0,0-1.256.533l-.356.226v3.521l.652.118-.059.416-1.126-.036-1.245.036-.059-.416.711-.118V3.5l-.427.071-2.407-.036v7.184l1.364.153-.059.416-1.921-.036-1.991.036-.06-.416,1.423-.153V3.532l-1.778.036-.545,1.481h-.462v-2.1l3.4.024,2.916-.024,1.269-.142h.4V6.65l1.73-1.126c1.518,0,1.767.569,1.767,2.075v3.153l.889.118-.059.416Z" transform="translate(-21.778 -1.144)"/>
      <path id="Path_886" data-name="Path 886" d="M76.337,10.116c0,1.351.723,2.311,1.968,2.311a3.073,3.073,0,0,0,1.481-.5l.19.45a7.212,7.212,0,0,1-2.074.936,2.687,2.687,0,0,1-2.727-2.881,2.962,2.962,0,0,1,2.679-3.047c1.564,0,2.1.984,2.1,2.229v.5Zm2.383-.593c0-.913-.178-1.542-1.091-1.542-.723,0-1.185.676-1.28,1.66Z" transform="translate(-30.627 -3.01)"/>
      <path id="Path_887" data-name="Path 887" d="M93.48,3.483l.059-.414,1.518.035,1.387-.035.059.414-1.008.154V8.474c0,1.541-.628,2.573-2.987,3.118-2.335,0-3.164-1.257-3.164-3.141V3.637l-1.067-.154.059-.414,1.636.035L91.6,3.069l.059.414-1.007.154V8.628c0,1.47.628,2.312,1.98,2.312,1.233,0,1.92-.83,1.92-2.347V3.637Z" transform="translate(-35.964 -1.25)"/>
      <path id="Path_888" data-name="Path 888" d="M103.837,13.116l-1.363.036-.059-.416.83-.118V8.291l-.83.072-.059-.415,1.422-.367.51-.036.059,1L106.1,7.39c1.517,0,1.767.51,1.767,1.932v3.3l.9.118-.059.416-1.364-.036-1.138.036-.059-.416.593-.118V9.227c0-.616-.273-.889-.782-.889a2.4,2.4,0,0,0-1.233.533l-.356.237v3.509l.652.118-.06.416Z" transform="translate(-41.701 -3.011)"/>
      <path id="Path_889" data-name="Path 889" d="M115.3,11.4l-1.363.036-.059-.415.83-.118V6.579l-.83.071-.059-.415,1.422-.367.593-.047v5.086l.889.118-.059.415ZM114.7,3.248l.853-.06.332.06.059.664-.13.569-.841.071-.32-.071-.071-.664Z" transform="translate(-46.369 -1.299)"/>
      <path id="Path_890" data-name="Path 890" d="M122.047,12.494,123.481,8.2l-.545-.118L123,7.669l1.043.036.984-.036.059.415-.759.118-1.944,4.872-.865.356L119.451,8.2l-.735-.118.059-.415,1.363.036,1.245-.036.059.415-.782.118,1.292,3.473Z" transform="translate(-48.366 -3.125)"/>
      <path id="Path_891" data-name="Path 891" d="M130.617,10.116c0,1.351.723,2.311,1.968,2.311a3.073,3.073,0,0,0,1.481-.5l.19.45a7.212,7.212,0,0,1-2.074.936,2.687,2.687,0,0,1-2.727-2.881,2.962,2.962,0,0,1,2.679-3.047c1.564,0,2.1.984,2.1,2.229v.5ZM133,9.524c0-.913-.178-1.542-1.092-1.542-.723,0-1.185.676-1.28,1.66Z" transform="translate(-52.741 -3.01)"/>
      <path id="Path_892" data-name="Path 892" d="M140.677,9.149l1.351-1.66h.949V8.675H142.1a2.708,2.708,0,0,0-1.126.842l-.237.284v2.821l1.245.119-.059.451-1.719-.036-1.328.036-.059-.415.83-.118V8.331l-.83.071-.059-.415,1.423-.367.474-.036Z" transform="translate(-56.53 -3.051)"/>
      <path id="Path_893" data-name="Path 893" d="M149.977,8.23a1.85,1.85,0,0,0-.9-.26c-.462,0-.9.248-.9.7,0,.38.3.617.83.889l.913.463c.794.4,1.114.853,1.114,1.529,0,1.067-.865,1.47-2.228,1.766a4.06,4.06,0,0,1-1.8-.533l-.225-1.339h.759l.4.984a1.786,1.786,0,0,0,.972.3.865.865,0,0,0,.949-.9c0-.463-.249-.664-.866-.984l-.936-.486a1.6,1.6,0,0,1-1-1.375c0-.83.77-1.292,2.146-1.589a3.178,3.178,0,0,1,1.671.533V9.108h-.628Z" transform="translate(-59.798 -3.01)"/>
      <path id="Path_894" data-name="Path 894" d="M156.677,11.4l-1.363.036-.059-.415.83-.118V6.579l-.83.071-.06-.415,1.423-.367.593-.047v5.086l.889.118-.059.415Zm-.593-8.156.853-.06.332.06.059.664-.13.569-.842.071-.32-.071-.071-.664Z" transform="translate(-63.228 -1.299)"/>
      <path id="Path_895" data-name="Path 895" d="M164.634,15.028V13.843h1.02l1.173-1.79-.474.142L164.362,7.2h-1.79V10.82c0,.344.13.712.628.712a2.5,2.5,0,0,0,1.043-.332l.2.4-1.493.818c-1.328,0-1.506-.474-1.506-1.541V7.347H160.3v-.2l.415-.414h.77V5.959l.771-.77h.308V6.671h3.734l.059.4-.782.118,1.316,3.474.095.818,1.47-4.292-.545-.118.06-.415,1.043.036.984-.036.059.415-.759.118-1.921,4.849-1.327,2.987Z" transform="translate(-65.306 -2.114)"/>
      <path id="Path_896" data-name="Path 896" d="M186.115,10.234c0,1.767-1.079,2.786-2.916,3.082a2.643,2.643,0,0,1-2.644-2.833c0-1.778,1.079-2.786,2.916-3.093a2.653,2.653,0,0,1,2.644,2.844m-2.62,2.5c.949,0,1.434-.972,1.434-2.252,0-1.505-.723-2.513-1.754-2.513-.96,0-1.434.972-1.434,2.264,0,1.352.7,2.5,1.754,2.5" transform="translate(-73.559 -3.011)"/>
      <path id="Path_897" data-name="Path 897" d="M192.944,5.852h1.481V6.41h-1.481v4.375l1.363.083-.059.45-1.838-.036-1.363.036-.059-.416.83-.117V6.41h-1.044v-.2l.356-.415h.687V5.675a2.3,2.3,0,0,1,.652-1.66l1-1.126h1.494v.949h-1.541l-.225.32a2.229,2.229,0,0,0-.249,1.339Z" transform="translate(-77.723 -1.177)"/>
      <path id="Path_898" data-name="Path 898" d="M208.569,11.391l-1.92-.036-1.992.036-.059-.415,1.422-.154V3.637l-1.778.024L203.7,5.167h-.462v-2.1l3.4.036,3.414-.036v2.1h-.462l-.546-1.505-1.778-.024v7.184l1.363.154Z" transform="translate(-82.8 -1.25)"/>
      <path id="Path_899" data-name="Path 899" d="M215,10.116c0,1.351.723,2.311,1.968,2.311a3.073,3.073,0,0,0,1.481-.5l.19.45a7.212,7.212,0,0,1-2.074.936,2.687,2.687,0,0,1-2.727-2.881,2.962,2.962,0,0,1,2.679-3.047c1.564,0,2.1.984,2.1,2.229v.5Zm2.383-.593c0-.913-.178-1.542-1.091-1.542-.723,0-1.185.676-1.28,1.66Z" transform="translate(-87.118 -3.01)"/>
      <path id="Path_900" data-name="Path 900" d="M224.9,12.85l-.059.415-.925-.036-1.221.036-.059-.415.83-.118,1.754-2.158L223.5,8.215l-.735-.119.059-.427,1.364.035,1.126-.035.059.427-.462.119.877,1.316.095.309,1.127-1.624-.581-.119.059-.427.924.035,1.221-.035.059.427-.853.119-1.565,1.9,1.861,2.62.735.118-.059.415-1.363-.036-1.126.036-.059-.415.487-.118L225.693,11.2l-.095-.273-1.256,1.8Z" transform="translate(-90.703 -3.125)"/>
      <path id="Path_901" data-name="Path 901" d="M236.19,7.39c1.493,0,1.873.379,1.873,1.884V11.6a1.446,1.446,0,0,0,.2.889h.593l.047.415-1.529.3-.367-.913L235.6,13.317a1.543,1.543,0,0,1-1.742-1.518,1.737,1.737,0,0,1,.415-1.09l2.667-.889V9.227c0-.711-.059-1.138-.7-1.138a2.836,2.836,0,0,0-.972.215l-.2.936h-1.019v-.9Zm.747,2.9-1.719.711a.9.9,0,0,0-.237.664c0,.605.344.818.687.818a1.411,1.411,0,0,0,.771-.308l.5-.344Z" transform="translate(-95.274 -3.011)"/>
      <path id="Path_902" data-name="Path 902" d="M246.376,8.23a1.85,1.85,0,0,0-.9-.26c-.463,0-.9.248-.9.7,0,.38.3.617.83.889l.913.463c.794.4,1.114.853,1.114,1.529,0,1.067-.865,1.47-2.228,1.766a4.06,4.06,0,0,1-1.8-.533l-.225-1.339h.759l.4.984a1.785,1.785,0,0,0,.972.3.865.865,0,0,0,.949-.9c0-.463-.249-.664-.866-.984l-.936-.486a1.6,1.6,0,0,1-1-1.375c0-.83.77-1.292,2.146-1.589a3.178,3.178,0,0,1,1.671.533V9.108h-.628Z" transform="translate(-99.071 -3.01)"/>
      <path id="Path_903" data-name="Path 903" d="M258.829,7.39c1.493,0,1.873.379,1.873,1.884V11.6a1.442,1.442,0,0,0,.2.889h.593l.047.415-1.529.3-.367-.913-1.411,1.032a1.543,1.543,0,0,1-1.742-1.518,1.737,1.737,0,0,1,.415-1.09l2.667-.889V9.227c0-.711-.059-1.138-.7-1.138a2.836,2.836,0,0,0-.972.215l-.2.936h-1.019v-.9Zm.747,2.9-1.719.711a.9.9,0,0,0-.237.664c0,.605.344.818.687.818a1.41,1.41,0,0,0,.771-.308l.5-.344Z" transform="translate(-104.498 -3.011)"/>
      <path id="Path_904" data-name="Path 904" d="M264.915,7.347v-.2l.415-.414h.77V5.959l.771-.77h.308V6.813h1.79v.533h-1.778V10.82c0,.344.13.712.628.712a2,2,0,0,0,.936-.285l.2.4-1.387.77c-1.328,0-1.506-.474-1.506-1.541V7.347Z" transform="translate(-107.928 -2.114)"/>
      <path id="Path_905" data-name="Path 905" d="M278.442,8.531l-.77,2.216,1.031.154-.059.415-1.422-.036-1.268.036-.059-.415.924-.13,2.94-7.681.711-.2,3.094,7.883.925.13-.06.415-1.636-.036-1.565.036-.059-.415,1.008-.154-.806-2.216Zm1.577-3.687-.083-.64-1.3,3.769h2.525Z" transform="translate(-112.401 -1.177)"/>
      <path id="Path_906" data-name="Path 906" d="M295.106,11.7a1.94,1.94,0,0,0,.142.889h.593l.047.415-1.529.3-.331-.961-1.72,1.079c-1.564,0-1.825-.556-1.825-1.931V8.389l-.83.06-.059-.463,1.423-.308.593-.047v3.947c0,.616.26.889.841.889a2.884,2.884,0,0,0,1.292-.593l.237-.155V8.389l-.712.06-.059-.463,1.3-.308.593-.047Z" transform="translate(-117.983 -3.109)"/>
      <path id="Path_907" data-name="Path 907" d="M304.315,8.23a1.851,1.851,0,0,0-.9-.26c-.462,0-.9.248-.9.7,0,.38.3.617.83.889l.913.463c.794.4,1.114.853,1.114,1.529,0,1.067-.865,1.47-2.228,1.766a4.06,4.06,0,0,1-1.8-.533l-.225-1.339h.759l.4.984a1.785,1.785,0,0,0,.972.3.865.865,0,0,0,.949-.9c0-.463-.249-.664-.866-.984l-.936-.486a1.6,1.6,0,0,1-1-1.375c0-.83.77-1.292,2.146-1.589a3.178,3.178,0,0,1,1.671.533V9.108h-.628Z" transform="translate(-122.676 -3.01)"/>
      <path id="Path_908" data-name="Path 908" d="M308.934,7.347v-.2l.415-.414h.77V5.959l.771-.77h.308V6.813h1.79v.533H311.21V10.82c0,.344.13.712.628.712a2,2,0,0,0,.936-.285l.2.4-1.387.77c-1.328,0-1.506-.474-1.506-1.541V7.347Z" transform="translate(-125.862 -2.114)"/>
      <path id="Path_909" data-name="Path 909" d="M318.3,11.4l-1.363.036-.059-.415.83-.118V6.579l-.83.071-.059-.415,1.422-.367.593-.047v5.086l.889.118-.059.415ZM317.7,3.248l.853-.06.332.06.059.664-.13.569-.841.071-.32-.071-.071-.664Z" transform="translate(-129.072 -1.299)"/>
      <path id="Path_910" data-name="Path 910" d="M324,13.116l-1.363.036-.059-.416.83-.118V8.291l-.83.072-.059-.415,1.422-.367.51-.036.059,1,1.755-1.15c1.517,0,1.766.51,1.766,1.932v3.3l.9.118-.059.416-1.364-.036-1.138.036-.059-.416.593-.118V9.227c0-.616-.273-.889-.782-.889a2.408,2.408,0,0,0-1.233.533l-.356.237v3.509l.652.118-.059.416Z" transform="translate(-131.395 -3.011)"/>
    </g>
  </g>
</svg>
